<svg width="41" height="30" viewBox="0 0 41 30" fill="none" xmlns="http://www.w3.org/2000/svg">
<path d="M39.9867 16.2654H15.1842C14.6251 16.2654 14.1719 16.7186 14.1719 17.2777V26.3888C14.1719 26.9479 14.6251 27.4012 15.1842 27.4012H39.9867C40.5458 27.4012 40.999 26.9479 40.999 26.3888V17.2777C40.999 16.7186 40.5458 16.2654 39.9867 16.2654Z" fill="#2C202A"/>
<path d="M13.0588 16.4578C11.3352 18.9945 8.92899 18.8335 7.01394 17.9774C5.32281 17.2215 4.13112 15.7157 3.01073 14.2406L0.97122 11.939C0.675443 11.6053 0.538974 11.1596 0.597143 10.7174L0.621956 10.5288C0.689003 10.0192 1.05937 9.60157 1.55737 9.47411C1.98766 9.36397 2.44412 9.48889 2.75836 9.80277L4.31704 11.3597C4.45649 11.499 4.69472 11.4002 4.69472 11.2031V1.83264C4.69472 1.1375 5.25823 0.573975 5.9534 0.573975C6.64853 0.573975 7.21205 1.1375 7.21205 1.83264V4.75228C7.21205 4.12441 7.72106 3.61542 8.34892 3.61542C8.97677 3.61542 9.48578 4.12441 9.48578 4.75228V6.05132C9.48578 5.43015 9.91901 4.89307 10.5262 4.76165C11.3483 4.58367 12.1249 5.21011 12.1249 6.05132V7.35274C12.1249 6.72489 12.6339 6.21588 13.2618 6.21588C13.8896 6.21588 14.3986 6.72489 14.3986 7.35274V12.5421C14.3986 13.8159 14.0141 15.0601 13.2952 16.1118L13.0588 16.4578Z" fill="#2C202A"/>
<path d="M13.0588 16.4578C11.3352 18.9945 8.92899 18.8335 7.01394 17.9774C5.32281 17.2215 4.13112 15.7157 3.01073 14.2406L0.97122 11.939C0.675443 11.6053 0.538974 11.1596 0.597143 10.7174L0.621956 10.5288C0.689003 10.0192 1.05937 9.60157 1.55737 9.47411C1.98766 9.36397 2.44412 9.48889 2.75836 9.80277L4.31704 11.3597C4.45649 11.499 4.69472 11.4002 4.69472 11.2031V1.83264C4.69472 1.1375 5.25823 0.573975 5.9534 0.573975C6.64853 0.573975 7.21205 1.1375 7.21205 1.83264V9.25646V4.75228C7.21205 4.12441 7.72106 3.61542 8.34892 3.61542C8.97677 3.61542 9.48578 4.12441 9.48578 4.75228V9.25646V7.40731V6.05132C9.48578 5.43015 9.91901 4.89307 10.5262 4.76165C11.3483 4.58367 12.1249 5.21011 12.1249 6.05132V9.25646V7.35274C12.1249 6.72489 12.6339 6.21588 13.2618 6.21588C13.8896 6.21588 14.3986 6.72489 14.3986 7.35274V12.5421C14.3986 13.8159 14.0141 15.0601 13.2952 16.1118L13.0588 16.4578Z" stroke="#DFE5FF" stroke-width="0.506173"/>
<path d="M20.01 25.1C19.4833 25.1 19.0067 24.9933 18.58 24.78C18.1533 24.56 17.8133 24.2367 17.56 23.81C17.3133 23.3833 17.19 22.85 17.19 22.21C17.1967 21.5833 17.3233 21.05 17.57 20.61C17.8167 20.17 18.1533 19.8367 18.58 19.61C19.0133 19.3833 19.5 19.27 20.04 19.27C20.56 19.27 21.0033 19.3633 21.37 19.55C21.7367 19.7367 22.03 19.99 22.25 20.31C22.4767 20.63 22.6233 20.99 22.69 21.39H21.64C21.5933 21.0967 21.4833 20.8667 21.31 20.7C21.1433 20.5267 20.9467 20.4067 20.72 20.34C20.4933 20.2667 20.2667 20.23 20.04 20.23C19.4467 20.23 18.99 20.3967 18.67 20.73C18.3567 21.0633 18.2 21.5333 18.2 22.14C18.2 22.7867 18.3533 23.2833 18.66 23.63C18.9733 23.9767 19.4267 24.15 20.02 24.15C20.2667 24.15 20.5067 24.1133 20.74 24.04C20.9733 23.96 21.1733 23.8333 21.34 23.66C21.5067 23.48 21.6133 23.24 21.66 22.94H22.72C22.6467 23.3467 22.5 23.7167 22.28 24.05C22.06 24.3767 21.76 24.6333 21.38 24.82C21.0067 25.0067 20.55 25.1 20.01 25.1ZM24.0956 25V19.37H25.0956V25H24.0956ZM26.6685 25V20.89H27.6885V25H26.6685ZM27.1785 20.36C26.9585 20.36 26.8085 20.3033 26.7285 20.19C26.6552 20.0767 26.6185 19.9467 26.6185 19.8C26.6185 19.6533 26.6552 19.5267 26.7285 19.42C26.8085 19.3067 26.9585 19.25 27.1785 19.25C27.4052 19.25 27.5518 19.3067 27.6185 19.42C27.6918 19.5267 27.7285 19.6533 27.7285 19.8C27.7285 19.9467 27.6918 20.0767 27.6185 20.19C27.5518 20.3033 27.4052 20.36 27.1785 20.36ZM31.1207 25.1C30.734 25.1 30.384 25.0233 30.0707 24.87C29.7574 24.71 29.5074 24.4767 29.3207 24.17C29.134 23.8567 29.0407 23.4767 29.0407 23.03C29.054 22.5833 29.1507 22.2 29.3307 21.88C29.5174 21.56 29.7674 21.3133 30.0807 21.14C30.394 20.9667 30.7474 20.88 31.1407 20.88C31.554 20.88 31.904 20.96 32.1907 21.12C32.4774 21.2733 32.7007 21.4733 32.8607 21.72C33.0207 21.9667 33.1107 22.2267 33.1307 22.5H32.1907C32.144 22.26 32.034 22.0767 31.8607 21.95C31.6874 21.8233 31.4574 21.76 31.1707 21.76C30.9307 21.76 30.7274 21.81 30.5607 21.91C30.394 22.01 30.264 22.15 30.1707 22.33C30.084 22.5033 30.0407 22.71 30.0407 22.95C30.0407 23.3367 30.134 23.6467 30.3207 23.88C30.514 24.1067 30.7974 24.22 31.1707 24.22C31.424 24.22 31.644 24.1533 31.8307 24.02C32.024 23.8867 32.144 23.69 32.1907 23.43H33.1307C33.1107 23.7167 33.0174 23.9867 32.8507 24.24C32.6907 24.4933 32.464 24.7 32.1707 24.86C31.884 25.02 31.534 25.1 31.1207 25.1ZM35.4982 25H34.4782V19.37H35.4982V25ZM36.4882 22.16L38.5282 25H37.3082L35.7482 22.87L36.4882 22.16ZM35.4582 24.01V22.86L37.2482 20.87H38.4982L35.4582 24.01Z" fill="#DFE5FF"/>
</svg>
