<svg width="681" height="262" viewBox="0 0 681 262" fill="none" xmlns="http://www.w3.org/2000/svg">
<path d="M3.85792 231.379V231.871H1.31392V231.379H2.35792V226.111C2.26992 226.335 2.15392 226.515 2.00992 226.651C1.86592 226.787 1.71792 226.891 1.56592 226.963C1.41392 227.027 1.27392 227.071 1.14592 227.095C1.02592 227.111 0.94592 227.119 0.90592 227.119V226.567C0.95392 226.567 1.05392 226.547 1.20592 226.507C1.35792 226.467 1.52592 226.395 1.70992 226.291C1.89392 226.187 2.04992 226.043 2.17792 225.859C2.31392 225.667 2.38592 225.419 2.39392 225.115H2.87392V231.379H3.85792ZM7.16561 232.039C6.24561 232.039 5.56961 231.723 5.13761 231.091C4.70561 230.451 4.48961 229.591 4.48961 228.511C4.48961 227.799 4.58161 227.183 4.76561 226.663C4.94961 226.135 5.23761 225.727 5.62961 225.439C6.02961 225.143 6.54161 224.995 7.16561 224.995C7.78161 224.995 8.28561 225.139 8.67761 225.427C9.07761 225.715 9.36961 226.123 9.55361 226.651C9.74561 227.179 9.84161 227.799 9.84161 228.511C9.84161 229.207 9.74561 229.823 9.55361 230.359C9.36961 230.887 9.07761 231.299 8.67761 231.595C8.28561 231.891 7.78161 232.039 7.16561 232.039ZM7.16561 231.571C7.90961 231.571 8.45361 231.299 8.79761 230.755C9.14161 230.203 9.31361 229.455 9.31361 228.511C9.31361 227.887 9.23761 227.347 9.08561 226.891C8.94161 226.435 8.70961 226.083 8.38961 225.835C8.07761 225.587 7.66961 225.463 7.16561 225.463C6.42961 225.463 5.88561 225.727 5.53361 226.255C5.18961 226.783 5.01761 227.535 5.01761 228.511C5.01761 229.135 5.08961 229.675 5.23361 230.131C5.38561 230.587 5.61761 230.943 5.92961 231.199C6.24161 231.447 6.65361 231.571 7.16561 231.571ZM13.0222 232.039C12.1022 232.039 11.4262 231.723 10.9942 231.091C10.5622 230.451 10.3462 229.591 10.3462 228.511C10.3462 227.799 10.4382 227.183 10.6222 226.663C10.8062 226.135 11.0942 225.727 11.4862 225.439C11.8862 225.143 12.3982 224.995 13.0222 224.995C13.6382 224.995 14.1422 225.139 14.5342 225.427C14.9342 225.715 15.2262 226.123 15.4102 226.651C15.6022 227.179 15.6982 227.799 15.6982 228.511C15.6982 229.207 15.6022 229.823 15.4102 230.359C15.2262 230.887 14.9342 231.299 14.5342 231.595C14.1422 231.891 13.6382 232.039 13.0222 232.039ZM13.0222 231.571C13.7662 231.571 14.3102 231.299 14.6542 230.755C14.9982 230.203 15.1702 229.455 15.1702 228.511C15.1702 227.887 15.0942 227.347 14.9422 226.891C14.7982 226.435 14.5662 226.083 14.2462 225.835C13.9342 225.587 13.5262 225.463 13.0222 225.463C12.2862 225.463 11.7422 225.727 11.3902 226.255C11.0462 226.783 10.8742 227.535 10.8742 228.511C10.8742 229.135 10.9462 229.675 11.0902 230.131C11.2422 230.587 11.4742 230.943 11.7862 231.199C12.0982 231.447 12.5102 231.571 13.0222 231.571ZM17.2467 229.543V228.871L21.1467 225.115H21.8667V225.235L17.2467 229.543ZM16.7547 231.883V225.115H17.3187V231.883H16.7547ZM21.3627 231.871L18.3747 228.259L18.7707 227.875L22.0107 231.751V231.871H21.3627Z" fill="#7C70C3"/>
<path d="M1.06192 207.871V207.415C1.06992 207.407 1.14992 207.351 1.30192 207.247C1.45392 207.135 1.65392 206.987 1.90192 206.803C2.15792 206.611 2.42992 206.395 2.71792 206.155C3.01392 205.907 3.30592 205.647 3.59392 205.375C3.88992 205.103 4.15392 204.831 4.38592 204.559C4.61792 204.287 4.79792 204.027 4.92592 203.779C5.12592 203.363 5.18592 202.987 5.10592 202.651C5.02592 202.315 4.83792 202.047 4.54192 201.847C4.25392 201.647 3.88192 201.547 3.42592 201.547C2.93792 201.555 2.53792 201.703 2.22592 201.991C1.91392 202.271 1.75792 202.683 1.75792 203.227L1.25392 203.191C1.25392 202.751 1.34592 202.375 1.52992 202.063C1.72192 201.751 1.98592 201.511 2.32192 201.343C2.65792 201.175 3.04592 201.091 3.48592 201.091C3.91792 201.091 4.29392 201.167 4.61392 201.319C4.94192 201.471 5.19392 201.679 5.36992 201.943C5.55392 202.207 5.65392 202.507 5.66992 202.843C5.68592 203.179 5.60192 203.535 5.41792 203.911C5.28192 204.175 5.07392 204.463 4.79392 204.775C4.51392 205.079 4.20592 205.379 3.86992 205.675C3.53392 205.971 3.20592 206.243 2.88592 206.491C2.57392 206.739 2.30592 206.943 2.08192 207.103C1.85792 207.263 1.72192 207.355 1.67392 207.379H5.81392V207.871H1.06192ZM9.21639 208.039C8.29639 208.039 7.62039 207.723 7.18839 207.091C6.75639 206.451 6.54039 205.591 6.54039 204.511C6.54039 203.799 6.63239 203.183 6.81639 202.663C7.00039 202.135 7.28839 201.727 7.68039 201.439C8.08039 201.143 8.59239 200.995 9.21639 200.995C9.83239 200.995 10.3364 201.139 10.7284 201.427C11.1284 201.715 11.4204 202.123 11.6044 202.651C11.7964 203.179 11.8924 203.799 11.8924 204.511C11.8924 205.207 11.7964 205.823 11.6044 206.359C11.4204 206.887 11.1284 207.299 10.7284 207.595C10.3364 207.891 9.83239 208.039 9.21639 208.039ZM9.21639 207.571C9.96039 207.571 10.5044 207.299 10.8484 206.755C11.1924 206.203 11.3644 205.455 11.3644 204.511C11.3644 203.887 11.2884 203.347 11.1364 202.891C10.9924 202.435 10.7604 202.083 10.4404 201.835C10.1284 201.587 9.72039 201.463 9.21639 201.463C8.48039 201.463 7.93639 201.727 7.58439 202.255C7.24039 202.783 7.06839 203.535 7.06839 204.511C7.06839 205.135 7.14039 205.675 7.28439 206.131C7.43639 206.587 7.66839 206.943 7.98039 207.199C8.29239 207.447 8.70439 207.571 9.21639 207.571ZM15.073 208.039C14.153 208.039 13.477 207.723 13.045 207.091C12.613 206.451 12.397 205.591 12.397 204.511C12.397 203.799 12.489 203.183 12.673 202.663C12.857 202.135 13.145 201.727 13.537 201.439C13.937 201.143 14.449 200.995 15.073 200.995C15.689 200.995 16.193 201.139 16.585 201.427C16.985 201.715 17.277 202.123 17.461 202.651C17.653 203.179 17.749 203.799 17.749 204.511C17.749 205.207 17.653 205.823 17.461 206.359C17.277 206.887 16.985 207.299 16.585 207.595C16.193 207.891 15.689 208.039 15.073 208.039ZM15.073 207.571C15.817 207.571 16.361 207.299 16.705 206.755C17.049 206.203 17.221 205.455 17.221 204.511C17.221 203.887 17.145 203.347 16.993 202.891C16.849 202.435 16.617 202.083 16.297 201.835C15.985 201.587 15.577 201.463 15.073 201.463C14.337 201.463 13.793 201.727 13.441 202.255C13.097 202.783 12.925 203.535 12.925 204.511C12.925 205.135 12.997 205.675 13.141 206.131C13.293 206.587 13.525 206.943 13.837 207.199C14.149 207.447 14.561 207.571 15.073 207.571ZM19.2975 205.543V204.871L23.1975 201.115H23.9175V201.235L19.2975 205.543ZM18.8055 207.883V201.115H19.3695V207.883H18.8055ZM23.4135 207.871L20.4255 204.259L20.8215 203.875L24.0615 207.751V207.871H23.4135Z" fill="#7C70C3"/>
<path d="M3.52192 183.991C3.11392 183.991 2.71792 183.907 2.33392 183.739C1.94992 183.571 1.62992 183.323 1.37392 182.995C1.12592 182.659 0.99792 182.239 0.98992 181.735L1.50592 181.699C1.52992 182.115 1.64192 182.455 1.84192 182.719C2.04992 182.983 2.30192 183.179 2.59792 183.307C2.90192 183.435 3.21392 183.499 3.53392 183.499C3.88592 183.499 4.20592 183.439 4.49392 183.319C4.78992 183.199 5.02592 183.027 5.20192 182.803C5.37792 182.571 5.46592 182.299 5.46592 181.987C5.46592 181.707 5.40992 181.475 5.29792 181.291C5.18592 181.099 5.04592 180.951 4.87792 180.847C4.70992 180.735 4.53792 180.659 4.36192 180.619C4.19392 180.579 4.05392 180.559 3.94192 180.559H2.89792V180.223H3.95392C4.23392 180.223 4.47392 180.175 4.67392 180.079C4.87392 179.975 5.02592 179.831 5.12992 179.647C5.23392 179.463 5.28592 179.255 5.28592 179.023C5.28592 178.535 5.12192 178.155 4.79392 177.883C4.47392 177.603 4.03792 177.463 3.48592 177.463C3.14992 177.463 2.86592 177.519 2.63392 177.631C2.40192 177.743 2.21392 177.883 2.06992 178.051C1.92592 178.219 1.81792 178.391 1.74592 178.567C1.68192 178.743 1.64192 178.899 1.62592 179.035L1.13392 178.987C1.14192 178.883 1.16992 178.751 1.21792 178.591C1.26592 178.423 1.34592 178.251 1.45792 178.075C1.56992 177.891 1.71392 177.719 1.88992 177.559C2.06592 177.391 2.28592 177.255 2.54992 177.151C2.81392 177.047 3.12592 176.995 3.48592 176.995C4.18192 176.995 4.74192 177.171 5.16592 177.523C5.58992 177.867 5.80192 178.343 5.80192 178.951C5.80192 179.343 5.69792 179.655 5.48992 179.887C5.28192 180.119 5.00992 180.287 4.67392 180.391C5.02592 180.487 5.32992 180.679 5.58592 180.967C5.84992 181.247 5.98192 181.607 5.98192 182.047C5.98192 182.431 5.87392 182.771 5.65792 183.067C5.44192 183.363 5.14992 183.591 4.78192 183.751C4.41392 183.911 3.99392 183.991 3.52192 183.991ZM9.22811 184.039C8.30811 184.039 7.63211 183.723 7.20011 183.091C6.76811 182.451 6.55211 181.591 6.55211 180.511C6.55211 179.799 6.64411 179.183 6.82811 178.663C7.01211 178.135 7.30011 177.727 7.69211 177.439C8.09211 177.143 8.60411 176.995 9.22811 176.995C9.84411 176.995 10.3481 177.139 10.7401 177.427C11.1401 177.715 11.4321 178.123 11.6161 178.651C11.8081 179.179 11.9041 179.799 11.9041 180.511C11.9041 181.207 11.8081 181.823 11.6161 182.359C11.4321 182.887 11.1401 183.299 10.7401 183.595C10.3481 183.891 9.84411 184.039 9.22811 184.039ZM9.22811 183.571C9.97211 183.571 10.5161 183.299 10.8601 182.755C11.2041 182.203 11.3761 181.455 11.3761 180.511C11.3761 179.887 11.3001 179.347 11.1481 178.891C11.0041 178.435 10.7721 178.083 10.4521 177.835C10.1401 177.587 9.73211 177.463 9.22811 177.463C8.49211 177.463 7.94811 177.727 7.59611 178.255C7.25211 178.783 7.08011 179.535 7.08011 180.511C7.08011 181.135 7.15211 181.675 7.29611 182.131C7.44811 182.587 7.68011 182.943 7.99211 183.199C8.30411 183.447 8.71611 183.571 9.22811 183.571ZM15.0847 184.039C14.1647 184.039 13.4887 183.723 13.0567 183.091C12.6247 182.451 12.4087 181.591 12.4087 180.511C12.4087 179.799 12.5007 179.183 12.6847 178.663C12.8687 178.135 13.1567 177.727 13.5487 177.439C13.9487 177.143 14.4607 176.995 15.0847 176.995C15.7007 176.995 16.2047 177.139 16.5967 177.427C16.9967 177.715 17.2887 178.123 17.4727 178.651C17.6647 179.179 17.7607 179.799 17.7607 180.511C17.7607 181.207 17.6647 181.823 17.4727 182.359C17.2887 182.887 16.9967 183.299 16.5967 183.595C16.2047 183.891 15.7007 184.039 15.0847 184.039ZM15.0847 183.571C15.8287 183.571 16.3727 183.299 16.7167 182.755C17.0607 182.203 17.2327 181.455 17.2327 180.511C17.2327 179.887 17.1567 179.347 17.0047 178.891C16.8607 178.435 16.6287 178.083 16.3087 177.835C15.9967 177.587 15.5887 177.463 15.0847 177.463C14.3487 177.463 13.8047 177.727 13.4527 178.255C13.1087 178.783 12.9367 179.535 12.9367 180.511C12.9367 181.135 13.0087 181.675 13.1527 182.131C13.3047 182.587 13.5367 182.943 13.8487 183.199C14.1607 183.447 14.5727 183.571 15.0847 183.571ZM19.3092 181.543V180.871L23.2092 177.115H23.9292V177.235L19.3092 181.543ZM18.8172 183.883V177.115H19.3812V183.883H18.8172ZM23.4252 183.871L20.4372 180.259L20.8332 179.875L24.0732 183.751V183.871H23.4252Z" fill="#7C70C3"/>
<path d="M0.89392 158.395V157.903C1.26192 157.727 1.61392 157.467 1.94992 157.123C2.29392 156.771 2.59792 156.371 2.86192 155.923C3.12592 155.475 3.33392 155.011 3.48592 154.531C3.64592 154.043 3.72992 153.571 3.73792 153.115H4.30192C4.30192 153.723 4.17792 154.327 3.92992 154.927C3.68192 155.527 3.34592 156.087 2.92192 156.607C2.50592 157.119 2.04192 157.551 1.52992 157.903H6.05392V158.395H0.89392ZM4.52992 159.871V156.499H5.06992V159.871H4.52992ZM9.29842 160.039C8.37842 160.039 7.70242 159.723 7.27042 159.091C6.83842 158.451 6.62242 157.591 6.62242 156.511C6.62242 155.799 6.71442 155.183 6.89842 154.663C7.08242 154.135 7.37042 153.727 7.76242 153.439C8.16242 153.143 8.67442 152.995 9.29842 152.995C9.91442 152.995 10.4184 153.139 10.8104 153.427C11.2104 153.715 11.5024 154.123 11.6864 154.651C11.8784 155.179 11.9744 155.799 11.9744 156.511C11.9744 157.207 11.8784 157.823 11.6864 158.359C11.5024 158.887 11.2104 159.299 10.8104 159.595C10.4184 159.891 9.91442 160.039 9.29842 160.039ZM9.29842 159.571C10.0424 159.571 10.5864 159.299 10.9304 158.755C11.2744 158.203 11.4464 157.455 11.4464 156.511C11.4464 155.887 11.3704 155.347 11.2184 154.891C11.0744 154.435 10.8424 154.083 10.5224 153.835C10.2104 153.587 9.80242 153.463 9.29842 153.463C8.56242 153.463 8.01842 153.727 7.66642 154.255C7.32242 154.783 7.15042 155.535 7.15042 156.511C7.15042 157.135 7.22242 157.675 7.36642 158.131C7.51842 158.587 7.75042 158.943 8.06242 159.199C8.37442 159.447 8.78642 159.571 9.29842 159.571ZM15.155 160.039C14.235 160.039 13.559 159.723 13.127 159.091C12.695 158.451 12.479 157.591 12.479 156.511C12.479 155.799 12.571 155.183 12.755 154.663C12.939 154.135 13.227 153.727 13.619 153.439C14.019 153.143 14.531 152.995 15.155 152.995C15.771 152.995 16.275 153.139 16.667 153.427C17.067 153.715 17.359 154.123 17.543 154.651C17.735 155.179 17.831 155.799 17.831 156.511C17.831 157.207 17.735 157.823 17.543 158.359C17.359 158.887 17.067 159.299 16.667 159.595C16.275 159.891 15.771 160.039 15.155 160.039ZM15.155 159.571C15.899 159.571 16.443 159.299 16.787 158.755C17.131 158.203 17.303 157.455 17.303 156.511C17.303 155.887 17.227 155.347 17.075 154.891C16.931 154.435 16.699 154.083 16.379 153.835C16.067 153.587 15.659 153.463 15.155 153.463C14.419 153.463 13.875 153.727 13.523 154.255C13.179 154.783 13.007 155.535 13.007 156.511C13.007 157.135 13.079 157.675 13.223 158.131C13.375 158.587 13.607 158.943 13.919 159.199C14.231 159.447 14.643 159.571 15.155 159.571ZM19.3795 157.543V156.871L23.2795 153.115H23.9995V153.235L19.3795 157.543ZM18.8875 159.883V153.115H19.4515V159.883H18.8875ZM23.4955 159.871L20.5075 156.259L20.9035 155.875L24.1435 159.751V159.871H23.4955Z" fill="#7C70C3"/>
<path d="M3.60592 135.991C3.19792 135.991 2.82592 135.927 2.48992 135.799C2.16192 135.663 1.88192 135.467 1.64992 135.211C1.42592 134.955 1.26192 134.639 1.15792 134.263L1.70992 134.227C1.71792 134.251 1.74592 134.331 1.79392 134.467C1.84992 134.595 1.94192 134.739 2.06992 134.899C2.20592 135.059 2.39792 135.203 2.64592 135.331C2.89392 135.451 3.21792 135.511 3.61792 135.511C4.04992 135.511 4.40992 135.427 4.69792 135.259C4.99392 135.083 5.21792 134.859 5.36992 134.587C5.52992 134.315 5.61792 134.031 5.63392 133.735C5.65792 133.423 5.60192 133.123 5.46592 132.835C5.32992 132.539 5.11392 132.299 4.81792 132.115C4.52992 131.923 4.16192 131.827 3.71392 131.827C3.37792 131.827 3.09392 131.871 2.86192 131.959C2.62992 132.039 2.44192 132.135 2.29792 132.247C2.16192 132.351 2.06192 132.447 1.99792 132.535C1.93392 132.615 1.90192 132.659 1.90192 132.667L1.39792 132.535L1.73392 129.115H5.83792V129.619H2.16592L1.90192 132.187C1.90192 132.187 1.93392 132.147 1.99792 132.067C2.06992 131.987 2.18192 131.895 2.33392 131.791C2.48592 131.687 2.68192 131.595 2.92192 131.515C3.16192 131.435 3.45392 131.395 3.79792 131.395C4.35792 131.395 4.81392 131.511 5.16592 131.743C5.52592 131.967 5.78592 132.263 5.94592 132.631C6.11392 132.991 6.18592 133.363 6.16192 133.747C6.12992 134.131 6.01392 134.495 5.81392 134.839C5.61392 135.175 5.32592 135.451 4.94992 135.667C4.58192 135.883 4.13392 135.991 3.60592 135.991ZM9.49764 136.039C8.57764 136.039 7.90164 135.723 7.46964 135.091C7.03764 134.451 6.82164 133.591 6.82164 132.511C6.82164 131.799 6.91364 131.183 7.09764 130.663C7.28164 130.135 7.56964 129.727 7.96164 129.439C8.36164 129.143 8.87364 128.995 9.49764 128.995C10.1136 128.995 10.6176 129.139 11.0096 129.427C11.4096 129.715 11.7016 130.123 11.8856 130.651C12.0776 131.179 12.1736 131.799 12.1736 132.511C12.1736 133.207 12.0776 133.823 11.8856 134.359C11.7016 134.887 11.4096 135.299 11.0096 135.595C10.6176 135.891 10.1136 136.039 9.49764 136.039ZM9.49764 135.571C10.2416 135.571 10.7856 135.299 11.1296 134.755C11.4736 134.203 11.6456 133.455 11.6456 132.511C11.6456 131.887 11.5696 131.347 11.4176 130.891C11.2736 130.435 11.0416 130.083 10.7216 129.835C10.4096 129.587 10.0016 129.463 9.49764 129.463C8.76164 129.463 8.21764 129.727 7.86564 130.255C7.52164 130.783 7.34964 131.535 7.34964 132.511C7.34964 133.135 7.42164 133.675 7.56564 134.131C7.71764 134.587 7.94964 134.943 8.26164 135.199C8.57364 135.447 8.98564 135.571 9.49764 135.571ZM15.3542 136.039C14.4342 136.039 13.7582 135.723 13.3262 135.091C12.8942 134.451 12.6782 133.591 12.6782 132.511C12.6782 131.799 12.7702 131.183 12.9542 130.663C13.1382 130.135 13.4262 129.727 13.8182 129.439C14.2182 129.143 14.7302 128.995 15.3542 128.995C15.9702 128.995 16.4742 129.139 16.8662 129.427C17.2662 129.715 17.5582 130.123 17.7422 130.651C17.9342 131.179 18.0302 131.799 18.0302 132.511C18.0302 133.207 17.9342 133.823 17.7422 134.359C17.5582 134.887 17.2662 135.299 16.8662 135.595C16.4742 135.891 15.9702 136.039 15.3542 136.039ZM15.3542 135.571C16.0982 135.571 16.6422 135.299 16.9862 134.755C17.3302 134.203 17.5022 133.455 17.5022 132.511C17.5022 131.887 17.4262 131.347 17.2742 130.891C17.1302 130.435 16.8982 130.083 16.5782 129.835C16.2662 129.587 15.8582 129.463 15.3542 129.463C14.6182 129.463 14.0742 129.727 13.7222 130.255C13.3782 130.783 13.2062 131.535 13.2062 132.511C13.2062 133.135 13.2782 133.675 13.4222 134.131C13.5742 134.587 13.8062 134.943 14.1182 135.199C14.4302 135.447 14.8422 135.571 15.3542 135.571ZM19.5788 133.543V132.871L23.4788 129.115H24.1988V129.235L19.5788 133.543ZM19.0868 135.883V129.115H19.6508V135.883H19.0868ZM23.6948 135.871L20.7068 132.259L21.1028 131.875L24.3428 135.751V135.871H23.6948Z" fill="#7C70C3"/>
<path d="M3.85792 111.379V111.871H1.31392V111.379H2.35792V106.111C2.26992 106.335 2.15392 106.515 2.00992 106.651C1.86592 106.787 1.71792 106.891 1.56592 106.963C1.41392 107.027 1.27392 107.071 1.14592 107.095C1.02592 107.111 0.94592 107.119 0.90592 107.119V106.567C0.95392 106.567 1.05392 106.547 1.20592 106.507C1.35792 106.467 1.52592 106.395 1.70992 106.291C1.89392 106.187 2.04992 106.043 2.17792 105.859C2.31392 105.667 2.38592 105.419 2.39392 105.115H2.87392V111.379H3.85792ZM4.84961 111.871V105.115H5.79761L8.28161 111.607H8.30561L10.7656 105.115H11.7136V111.871H11.1616L11.1736 105.439H11.1616L8.68961 111.871H7.86161L5.40161 105.439H5.37761L5.40161 111.871H4.84961Z" fill="#7C70C3"/>
<path d="M3.85792 87.3791V87.8711H1.31392V87.3791H2.35792V82.1111C2.26992 82.3351 2.15392 82.5151 2.00992 82.6511C1.86592 82.7871 1.71792 82.8911 1.56592 82.9631C1.41392 83.0271 1.27392 83.0711 1.14592 83.0951C1.02592 83.1111 0.94592 83.1191 0.90592 83.1191V82.5671C0.95392 82.5671 1.05392 82.5471 1.20592 82.5071C1.35792 82.4671 1.52592 82.3951 1.70992 82.2911C1.89392 82.1871 2.04992 82.0431 2.17792 81.8591C2.31392 81.6671 2.38592 81.4191 2.39392 81.1151H2.87392V87.3791H3.85792ZM7.16561 88.0391C6.24561 88.0391 5.56961 87.7231 5.13761 87.0911C4.70561 86.4511 4.48961 85.5911 4.48961 84.5111C4.48961 83.7991 4.58161 83.1831 4.76561 82.6631C4.94961 82.1351 5.23761 81.7271 5.62961 81.4391C6.02961 81.1431 6.54161 80.9951 7.16561 80.9951C7.78161 80.9951 8.28561 81.1391 8.67761 81.4271C9.07761 81.7151 9.36961 82.1231 9.55361 82.6511C9.74561 83.1791 9.84161 83.7991 9.84161 84.5111C9.84161 85.2071 9.74561 85.8231 9.55361 86.3591C9.36961 86.8871 9.07761 87.2991 8.67761 87.5951C8.28561 87.8911 7.78161 88.0391 7.16561 88.0391ZM7.16561 87.5711C7.90961 87.5711 8.45361 87.2991 8.79761 86.7551C9.14161 86.2031 9.31361 85.4551 9.31361 84.5111C9.31361 83.8871 9.23761 83.3471 9.08561 82.8911C8.94161 82.4351 8.70961 82.0831 8.38961 81.8351C8.07761 81.5871 7.66961 81.4631 7.16561 81.4631C6.42961 81.4631 5.88561 81.7271 5.53361 82.2551C5.18961 82.7831 5.01761 83.5351 5.01761 84.5111C5.01761 85.1351 5.08961 85.6751 5.23361 86.1311C5.38561 86.5871 5.61761 86.9431 5.92961 87.1991C6.24161 87.4471 6.65361 87.5711 7.16561 87.5711ZM10.7062 87.8711V81.1151H11.6542L14.1382 87.6071H14.1622L16.6222 81.1151H17.5702V87.8711H17.0182L17.0302 81.4391H17.0182L14.5462 87.8711H13.7182L11.2582 81.4391H11.2342L11.2582 87.8711H10.7062Z" fill="#7C70C3"/>
<path d="M3.52192 63.9911C3.11392 63.9911 2.71792 63.9071 2.33392 63.7391C1.94992 63.5711 1.62992 63.3231 1.37392 62.9951C1.12592 62.6591 0.99792 62.2391 0.98992 61.7351L1.50592 61.6991C1.52992 62.1151 1.64192 62.4551 1.84192 62.7191C2.04992 62.9831 2.30192 63.1791 2.59792 63.3071C2.90192 63.4351 3.21392 63.4991 3.53392 63.4991C3.88592 63.4991 4.20592 63.4391 4.49392 63.3191C4.78992 63.1991 5.02592 63.0271 5.20192 62.8031C5.37792 62.5711 5.46592 62.2991 5.46592 61.9871C5.46592 61.7071 5.40992 61.4751 5.29792 61.2911C5.18592 61.0991 5.04592 60.9511 4.87792 60.8471C4.70992 60.7351 4.53792 60.6591 4.36192 60.6191C4.19392 60.5791 4.05392 60.5591 3.94192 60.5591H2.89792V60.2231H3.95392C4.23392 60.2231 4.47392 60.1751 4.67392 60.0791C4.87392 59.9751 5.02592 59.8311 5.12992 59.6471C5.23392 59.4631 5.28592 59.2551 5.28592 59.0231C5.28592 58.5351 5.12192 58.1551 4.79392 57.8831C4.47392 57.6031 4.03792 57.4631 3.48592 57.4631C3.14992 57.4631 2.86592 57.5191 2.63392 57.6311C2.40192 57.7431 2.21392 57.8831 2.06992 58.0511C1.92592 58.2191 1.81792 58.3911 1.74592 58.5671C1.68192 58.7431 1.64192 58.8991 1.62592 59.0351L1.13392 58.9871C1.14192 58.8831 1.16992 58.7511 1.21792 58.5911C1.26592 58.4231 1.34592 58.2511 1.45792 58.0751C1.56992 57.8911 1.71392 57.7191 1.88992 57.5591C2.06592 57.3911 2.28592 57.2551 2.54992 57.1511C2.81392 57.0471 3.12592 56.9951 3.48592 56.9951C4.18192 56.9951 4.74192 57.1711 5.16592 57.5231C5.58992 57.8671 5.80192 58.3431 5.80192 58.9511C5.80192 59.3431 5.69792 59.6551 5.48992 59.8871C5.28192 60.1191 5.00992 60.2871 4.67392 60.3911C5.02592 60.4871 5.32992 60.6791 5.58592 60.9671C5.84992 61.2471 5.98192 61.6071 5.98192 62.0471C5.98192 62.4311 5.87392 62.7711 5.65792 63.0671C5.44192 63.3631 5.14992 63.5911 4.78192 63.7511C4.41392 63.9111 3.99392 63.9911 3.52192 63.9911ZM9.22811 64.0391C8.30811 64.0391 7.63211 63.7231 7.20011 63.0911C6.76811 62.4511 6.55211 61.5911 6.55211 60.5111C6.55211 59.7991 6.64411 59.1831 6.82811 58.6631C7.01211 58.1351 7.30011 57.7271 7.69211 57.4391C8.09211 57.1431 8.60411 56.9951 9.22811 56.9951C9.84411 56.9951 10.3481 57.1391 10.7401 57.4271C11.1401 57.7151 11.4321 58.1231 11.6161 58.6511C11.8081 59.1791 11.9041 59.7991 11.9041 60.5111C11.9041 61.2071 11.8081 61.8231 11.6161 62.3591C11.4321 62.8871 11.1401 63.2991 10.7401 63.5951C10.3481 63.8911 9.84411 64.0391 9.22811 64.0391ZM9.22811 63.5711C9.97211 63.5711 10.5161 63.2991 10.8601 62.7551C11.2041 62.2031 11.3761 61.4551 11.3761 60.5111C11.3761 59.8871 11.3001 59.3471 11.1481 58.8911C11.0041 58.4351 10.7721 58.0831 10.4521 57.8351C10.1401 57.5871 9.73211 57.4631 9.22811 57.4631C8.49211 57.4631 7.94811 57.7271 7.59611 58.2551C7.25211 58.7831 7.08011 59.5351 7.08011 60.5111C7.08011 61.1351 7.15211 61.6751 7.29611 62.1311C7.44811 62.5871 7.68011 62.9431 7.99211 63.1991C8.30411 63.4471 8.71611 63.5711 9.22811 63.5711ZM12.7687 63.8711V57.1151H13.7167L16.2007 63.6071H16.2247L18.6847 57.1151H19.6327V63.8711H19.0807L19.0927 57.4391H19.0807L16.6087 63.8711H15.7807L13.3207 57.4391H13.2967L13.3207 63.8711H12.7687Z" fill="#7C70C3"/>
<path d="M3.60592 39.9911C3.19792 39.9911 2.82592 39.9271 2.48992 39.7991C2.16192 39.6631 1.88192 39.4671 1.64992 39.2111C1.42592 38.9551 1.26192 38.6391 1.15792 38.2631L1.70992 38.2271C1.71792 38.2511 1.74592 38.3311 1.79392 38.4671C1.84992 38.5951 1.94192 38.7391 2.06992 38.8991C2.20592 39.0591 2.39792 39.2031 2.64592 39.3311C2.89392 39.4511 3.21792 39.5111 3.61792 39.5111C4.04992 39.5111 4.40992 39.4271 4.69792 39.2591C4.99392 39.0831 5.21792 38.8591 5.36992 38.5871C5.52992 38.3151 5.61792 38.0311 5.63392 37.7351C5.65792 37.4231 5.60192 37.1231 5.46592 36.8351C5.32992 36.5391 5.11392 36.2991 4.81792 36.1151C4.52992 35.9231 4.16192 35.8271 3.71392 35.8271C3.37792 35.8271 3.09392 35.8711 2.86192 35.9591C2.62992 36.0391 2.44192 36.1351 2.29792 36.2471C2.16192 36.3511 2.06192 36.4471 1.99792 36.5351C1.93392 36.6151 1.90192 36.6591 1.90192 36.6671L1.39792 36.5351L1.73392 33.1151H5.83792V33.6191H2.16592L1.90192 36.1871C1.90192 36.1871 1.93392 36.1471 1.99792 36.0671C2.06992 35.9871 2.18192 35.8951 2.33392 35.7911C2.48592 35.6871 2.68192 35.5951 2.92192 35.5151C3.16192 35.4351 3.45392 35.3951 3.79792 35.3951C4.35792 35.3951 4.81392 35.5111 5.16592 35.7431C5.52592 35.9671 5.78592 36.2631 5.94592 36.6311C6.11392 36.9911 6.18592 37.3631 6.16192 37.7471C6.12992 38.1311 6.01392 38.4951 5.81392 38.8391C5.61392 39.1751 5.32592 39.4511 4.94992 39.6671C4.58192 39.8831 4.13392 39.9911 3.60592 39.9911ZM9.49764 40.0391C8.57764 40.0391 7.90164 39.7231 7.46964 39.0911C7.03764 38.4511 6.82164 37.5911 6.82164 36.5111C6.82164 35.7991 6.91364 35.1831 7.09764 34.6631C7.28164 34.1351 7.56964 33.7271 7.96164 33.4391C8.36164 33.1431 8.87364 32.9951 9.49764 32.9951C10.1136 32.9951 10.6176 33.1391 11.0096 33.4271C11.4096 33.7151 11.7016 34.1231 11.8856 34.6511C12.0776 35.1791 12.1736 35.7991 12.1736 36.5111C12.1736 37.2071 12.0776 37.8231 11.8856 38.3591C11.7016 38.8871 11.4096 39.2991 11.0096 39.5951C10.6176 39.8911 10.1136 40.0391 9.49764 40.0391ZM9.49764 39.5711C10.2416 39.5711 10.7856 39.2991 11.1296 38.7551C11.4736 38.2031 11.6456 37.4551 11.6456 36.5111C11.6456 35.8871 11.5696 35.3471 11.4176 34.8911C11.2736 34.4351 11.0416 34.0831 10.7216 33.8351C10.4096 33.5871 10.0016 33.4631 9.49764 33.4631C8.76164 33.4631 8.21764 33.7271 7.86564 34.2551C7.52164 34.7831 7.34964 35.5351 7.34964 36.5111C7.34964 37.1351 7.42164 37.6751 7.56564 38.1311C7.71764 38.5871 7.94964 38.9431 8.26164 39.1991C8.57364 39.4471 8.98564 39.5711 9.49764 39.5711ZM15.3542 40.0391C14.4342 40.0391 13.7582 39.7231 13.3262 39.0911C12.8942 38.4511 12.6782 37.5911 12.6782 36.5111C12.6782 35.7991 12.7702 35.1831 12.9542 34.6631C13.1382 34.1351 13.4262 33.7271 13.8182 33.4391C14.2182 33.1431 14.7302 32.9951 15.3542 32.9951C15.9702 32.9951 16.4742 33.1391 16.8662 33.4271C17.2662 33.7151 17.5582 34.1231 17.7422 34.6511C17.9342 35.1791 18.0302 35.7991 18.0302 36.5111C18.0302 37.2071 17.9342 37.8231 17.7422 38.3591C17.5582 38.8871 17.2662 39.2991 16.8662 39.5951C16.4742 39.8911 15.9702 40.0391 15.3542 40.0391ZM15.3542 39.5711C16.0982 39.5711 16.6422 39.2991 16.9862 38.7551C17.3302 38.2031 17.5022 37.4551 17.5022 36.5111C17.5022 35.8871 17.4262 35.3471 17.2742 34.8911C17.1302 34.4351 16.8982 34.0831 16.5782 33.8351C16.2662 33.5871 15.8582 33.4631 15.3542 33.4631C14.6182 33.4631 14.0742 33.7271 13.7222 34.2551C13.3782 34.7831 13.2062 35.5351 13.2062 36.5111C13.2062 37.1351 13.2782 37.6751 13.4222 38.1311C13.5742 38.5871 13.8062 38.9431 14.1182 39.1991C14.4302 39.4471 14.8422 39.5711 15.3542 39.5711ZM18.8948 39.8711V33.1151H19.8428L22.3268 39.6071H22.3508L24.8108 33.1151H25.7588V39.8711H25.2068L25.2188 33.4391H25.2068L22.7348 39.8711H21.9068L19.4468 33.4391H19.4228L19.4468 39.8711H18.8948Z" fill="#7C70C3"/>
<path d="M3.85792 15.3791V15.8711H1.31392V15.3791H2.35792V10.1111C2.26992 10.3351 2.15392 10.5151 2.00992 10.6511C1.86592 10.7871 1.71792 10.8911 1.56592 10.9631C1.41392 11.0271 1.27392 11.0711 1.14592 11.0951C1.02592 11.1111 0.94592 11.1191 0.90592 11.1191V10.5671C0.95392 10.5671 1.05392 10.5471 1.20592 10.5071C1.35792 10.4671 1.52592 10.3951 1.70992 10.2911C1.89392 10.1871 2.04992 10.0431 2.17792 9.85909C2.31392 9.66709 2.38592 9.41909 2.39392 9.11509H2.87392V15.3791H3.85792ZM4.92161 15.8711V9.11509H7.24961C7.49761 9.11509 7.74561 9.12709 7.99361 9.15109C8.24161 9.17509 8.46961 9.22309 8.67761 9.29509C8.89361 9.36709 9.08161 9.47109 9.24161 9.60709C9.40961 9.74309 9.53761 9.91909 9.62561 10.1351C9.72161 10.3431 9.76961 10.6031 9.76961 10.9151C9.76961 11.1711 9.72161 11.4111 9.62561 11.6351C9.52961 11.8511 9.34961 12.0271 9.08561 12.1631C8.82961 12.2991 8.46161 12.3711 7.98161 12.3791V12.4151C8.54161 12.4231 8.96961 12.5071 9.26561 12.6671C9.56961 12.8191 9.77761 13.0231 9.88961 13.2791C10.0016 13.5351 10.0576 13.8111 10.0576 14.1071C10.0576 14.4191 10.0056 14.6791 9.90161 14.8871C9.80561 15.0951 9.66561 15.2671 9.48161 15.4031C9.30561 15.5311 9.10161 15.6311 8.86961 15.7031C8.64561 15.7671 8.40561 15.8111 8.14961 15.8351C7.90161 15.8591 7.65361 15.8711 7.40561 15.8711H4.92161ZM5.47361 15.4031H7.38161C7.77361 15.4031 8.12961 15.3751 8.44961 15.3191C8.76961 15.2551 9.02161 15.1271 9.20561 14.9351C9.38961 14.7431 9.48161 14.4551 9.48161 14.0711C9.48161 13.6631 9.38161 13.3591 9.18161 13.1591C8.98161 12.9511 8.70961 12.8111 8.36561 12.7391C8.02161 12.6671 7.63761 12.6311 7.21361 12.6311H5.47361V15.4031ZM5.47361 12.1511H7.20161C7.60961 12.1511 7.96161 12.1271 8.25761 12.0791C8.56161 12.0231 8.79361 11.9111 8.95361 11.7431C9.12161 11.5671 9.20561 11.3031 9.20561 10.9511C9.20561 10.5351 9.11361 10.2351 8.92961 10.0511C8.74561 9.85909 8.50161 9.73509 8.19761 9.67909C7.89361 9.62309 7.56561 9.59509 7.21361 9.59509H5.47361V12.1511Z" fill="#7C70C3"/>
<path d="M75.5151 246.124V241.62H76.1471L77.8031 245.948H77.8191L79.4591 241.62H80.0911V246.124H79.7231L79.7311 241.836H79.7231L78.0751 246.124H77.5231L75.8831 241.836H75.8671L75.8831 246.124H75.5151ZM83.3033 246.204C82.9673 246.204 82.6846 246.135 82.4553 245.996C82.2313 245.852 82.0633 245.655 81.9513 245.404C81.8393 245.153 81.7833 244.868 81.7833 244.548C81.7833 244.223 81.8393 243.935 81.9513 243.684C82.0633 243.428 82.2313 243.231 82.4553 243.092C82.6846 242.948 82.9673 242.876 83.3033 242.876C83.7939 242.876 84.1673 243.031 84.4233 243.34C84.6846 243.644 84.8153 244.047 84.8153 244.548C84.8153 244.857 84.7619 245.14 84.6553 245.396C84.5486 245.647 84.3833 245.844 84.1593 245.988C83.9353 246.132 83.6499 246.204 83.3033 246.204ZM83.3033 245.876C83.6019 245.876 83.8339 245.809 83.9993 245.676C84.1646 245.543 84.2793 245.375 84.3433 245.172C84.4126 244.964 84.4473 244.753 84.4473 244.54C84.4473 244.321 84.4126 244.111 84.3433 243.908C84.2793 243.7 84.1646 243.529 83.9993 243.396C83.8339 243.263 83.6019 243.196 83.3033 243.196C83.0099 243.196 82.7779 243.263 82.6073 243.396C82.4366 243.529 82.3166 243.7 82.2473 243.908C82.1833 244.111 82.1513 244.321 82.1513 244.54C82.1513 244.753 82.1833 244.964 82.2473 245.172C82.3166 245.375 82.4366 245.543 82.6073 245.676C82.7779 245.809 83.0099 245.876 83.3033 245.876ZM86.4728 246.124V242.876H86.7768L86.8408 243.74H86.8568C86.8675 243.703 86.8942 243.639 86.9368 243.548C86.9795 243.457 87.0462 243.361 87.1368 243.26C87.2275 243.153 87.3475 243.063 87.4968 242.988C87.6462 242.913 87.8328 242.876 88.0568 242.876C88.2808 242.876 88.4648 242.908 88.6088 242.972C88.7582 243.036 88.8782 243.124 88.9688 243.236C89.0648 243.343 89.1368 243.468 89.1848 243.612C89.2328 243.751 89.2648 243.897 89.2808 244.052C89.2968 244.207 89.3048 244.361 89.3048 244.516V246.124H88.9448V244.516C88.9448 244.249 88.9155 244.02 88.8568 243.828C88.7982 243.631 88.6995 243.479 88.5608 243.372C88.4222 243.265 88.2302 243.212 87.9848 243.212C87.7235 243.212 87.5075 243.276 87.3368 243.404C87.1715 243.532 87.0462 243.7 86.9608 243.908C86.8808 244.116 86.8408 244.343 86.8408 244.588V246.124H86.4728ZM92.4772 246.204C92.1679 246.204 91.9039 246.129 91.6852 245.98C91.4719 245.831 91.3092 245.631 91.1972 245.38C91.0852 245.129 91.0292 244.849 91.0292 244.54C91.0292 244.225 91.0852 243.943 91.1972 243.692C91.3145 243.441 91.4799 243.244 91.6932 243.1C91.9119 242.951 92.1759 242.876 92.4852 242.876C92.7039 242.876 92.8905 242.913 93.0452 242.988C93.1999 243.063 93.3225 243.153 93.4132 243.26C93.5039 243.367 93.5705 243.468 93.6132 243.564C93.6612 243.655 93.6932 243.719 93.7092 243.756H93.7252V241.62H94.1012V246.124H93.7972L93.7332 245.34H93.7172C93.7012 245.367 93.6665 245.428 93.6132 245.524C93.5652 245.615 93.4932 245.713 93.3972 245.82C93.3012 245.927 93.1759 246.017 93.0212 246.092C92.8719 246.167 92.6905 246.204 92.4772 246.204ZM92.5252 245.86C92.7439 245.86 92.9412 245.809 93.1172 245.708C93.2985 245.607 93.4425 245.457 93.5492 245.26C93.6559 245.057 93.7092 244.817 93.7092 244.54C93.7092 244.263 93.6585 244.028 93.5572 243.836C93.4612 243.639 93.3279 243.489 93.1572 243.388C92.9865 243.281 92.7945 243.228 92.5812 243.228C92.3145 243.228 92.0932 243.292 91.9172 243.42C91.7412 243.543 91.6079 243.705 91.5172 243.908C91.4319 244.105 91.3892 244.316 91.3892 244.54C91.3892 244.759 91.4265 244.972 91.5012 245.18C91.5812 245.383 91.7039 245.548 91.8692 245.676C92.0399 245.799 92.2585 245.86 92.5252 245.86ZM96.9295 246.196C96.6309 246.196 96.3829 246.121 96.1855 245.972C95.9882 245.823 95.8415 245.623 95.7455 245.372C95.6495 245.116 95.6015 244.833 95.6015 244.524C95.6015 244.199 95.6495 243.911 95.7455 243.66C95.8469 243.409 95.9962 243.212 96.1935 243.068C96.3962 242.919 96.6415 242.844 96.9295 242.844C97.0895 242.844 97.2309 242.865 97.3535 242.908C97.4762 242.951 97.5855 243.007 97.6815 243.076C97.7775 243.145 97.8575 243.225 97.9215 243.316C97.9909 243.401 98.0442 243.495 98.0815 243.596H98.0895V242.876H98.4655V246.124H98.1615L98.0975 245.452H98.0815C98.0389 245.548 97.9829 245.641 97.9135 245.732C97.8495 245.817 97.7695 245.897 97.6735 245.972C97.5775 246.041 97.4682 246.095 97.3455 246.132C97.2229 246.175 97.0842 246.196 96.9295 246.196ZM97.0655 245.86C97.2949 245.86 97.4842 245.807 97.6335 245.7C97.7882 245.593 97.9029 245.441 97.9775 245.244C98.0522 245.041 98.0895 244.804 98.0895 244.532C98.0895 244.233 98.0495 243.988 97.9695 243.796C97.8895 243.599 97.7722 243.449 97.6175 243.348C97.4682 243.247 97.2842 243.196 97.0655 243.196C96.8149 243.196 96.6069 243.255 96.4415 243.372C96.2815 243.489 96.1615 243.647 96.0815 243.844C96.0069 244.041 95.9695 244.268 95.9695 244.524C95.9695 244.785 96.0095 245.017 96.0895 245.22C96.1695 245.423 96.2895 245.58 96.4495 245.692C96.6149 245.804 96.8202 245.86 97.0655 245.86ZM99.7382 247.548V247.244H100.154C100.229 247.244 100.29 247.231 100.338 247.204C100.386 247.177 100.434 247.127 100.482 247.052C100.536 246.983 100.594 246.879 100.658 246.74L101.058 245.868L99.7862 242.876H100.17L101.25 245.468L102.394 242.876H102.786L100.978 246.804C100.909 246.964 100.845 247.092 100.786 247.188C100.728 247.289 100.669 247.367 100.61 247.42C100.552 247.473 100.485 247.508 100.41 247.524C100.341 247.54 100.261 247.548 100.17 247.548H99.7382Z" fill="#49306F"/>
<path d="M173.092 241.764V246.124H172.732V241.764H173.092ZM171.228 241.948V241.62H174.588V241.948H171.228ZM176.7 246.204C176.497 246.204 176.321 246.175 176.172 246.116C176.028 246.057 175.908 245.977 175.812 245.876C175.716 245.769 175.641 245.649 175.588 245.516C175.535 245.377 175.497 245.228 175.476 245.068C175.455 244.908 175.444 244.743 175.444 244.572V242.876H175.804V244.572C175.804 244.812 175.828 245.031 175.876 245.228C175.929 245.425 176.028 245.583 176.172 245.7C176.316 245.812 176.521 245.868 176.788 245.868C177.044 245.868 177.247 245.809 177.396 245.692C177.551 245.569 177.665 245.415 177.74 245.228C177.815 245.036 177.857 244.833 177.868 244.62V242.876H178.244V246.124H177.94L177.876 245.348H177.86C177.833 245.433 177.791 245.524 177.732 245.62C177.673 245.716 177.596 245.809 177.5 245.9C177.409 245.991 177.297 246.065 177.164 246.124C177.031 246.177 176.876 246.204 176.7 246.204ZM181.416 246.204C181.069 246.204 180.781 246.121 180.552 245.956C180.328 245.791 180.16 245.58 180.048 245.324C179.936 245.063 179.883 244.793 179.888 244.516C179.888 244.228 179.947 243.959 180.064 243.708C180.181 243.457 180.352 243.257 180.576 243.108C180.805 242.953 181.083 242.876 181.408 242.876C181.68 242.876 181.92 242.937 182.128 243.06C182.341 243.177 182.512 243.345 182.64 243.564C182.768 243.777 182.84 244.033 182.856 244.332C182.861 244.359 182.864 244.391 182.864 244.428C182.864 244.465 182.864 244.5 182.864 244.532H180.24C180.24 244.943 180.341 245.271 180.544 245.516C180.752 245.761 181.043 245.884 181.416 245.884C181.688 245.884 181.923 245.812 182.12 245.668C182.323 245.524 182.448 245.329 182.496 245.084H182.856C182.819 245.303 182.733 245.497 182.6 245.668C182.467 245.833 182.299 245.964 182.096 246.06C181.893 246.156 181.667 246.204 181.416 246.204ZM180.264 244.292H182.488C182.483 244.191 182.459 244.079 182.416 243.956C182.379 243.828 182.317 243.705 182.232 243.588C182.147 243.471 182.035 243.375 181.896 243.3C181.763 243.225 181.6 243.188 181.408 243.188C181.232 243.188 181.077 243.22 180.944 243.284C180.811 243.343 180.696 243.423 180.6 243.524C180.509 243.625 180.435 243.743 180.376 243.876C180.323 244.004 180.285 244.143 180.264 244.292ZM185.818 246.204C185.6 246.204 185.413 246.175 185.258 246.116C185.104 246.052 184.976 245.972 184.874 245.876C184.773 245.78 184.693 245.681 184.634 245.58C184.576 245.479 184.533 245.385 184.506 245.3C184.485 245.215 184.474 245.151 184.474 245.108H184.834C184.834 245.113 184.84 245.159 184.85 245.244C184.866 245.324 184.904 245.417 184.962 245.524C185.026 245.631 185.125 245.724 185.258 245.804C185.392 245.879 185.578 245.916 185.818 245.916C185.994 245.916 186.154 245.897 186.298 245.86C186.442 245.817 186.557 245.753 186.642 245.668C186.728 245.577 186.77 245.46 186.77 245.316C186.77 245.145 186.714 245.015 186.602 244.924C186.496 244.828 186.357 244.759 186.186 244.716C186.016 244.668 185.837 244.625 185.65 244.588C185.464 244.545 185.285 244.492 185.114 244.428C184.949 244.364 184.813 244.271 184.706 244.148C184.605 244.025 184.554 243.857 184.554 243.644C184.56 243.388 184.68 243.183 184.914 243.028C185.149 242.868 185.45 242.788 185.818 242.788C185.957 242.788 186.104 242.804 186.258 242.836C186.413 242.868 186.554 242.924 186.682 243.004C186.816 243.084 186.922 243.193 187.002 243.332C187.088 243.471 187.122 243.652 187.106 243.876H186.754C186.76 243.711 186.73 243.577 186.666 243.476C186.608 243.375 186.525 243.297 186.418 243.244C186.317 243.185 186.21 243.148 186.098 243.132C185.986 243.116 185.885 243.108 185.794 243.108C185.544 243.108 185.33 243.153 185.154 243.244C184.984 243.335 184.898 243.473 184.898 243.66C184.898 243.815 184.952 243.935 185.058 244.02C185.165 244.105 185.304 244.172 185.474 244.22C185.645 244.263 185.824 244.303 186.01 244.34C186.197 244.377 186.376 244.431 186.546 244.5C186.717 244.569 186.856 244.668 186.962 244.796C187.069 244.924 187.122 245.103 187.122 245.332C187.122 245.54 187.064 245.708 186.946 245.836C186.834 245.964 186.68 246.057 186.482 246.116C186.285 246.175 186.064 246.204 185.818 246.204ZM190.222 246.204C189.913 246.204 189.649 246.129 189.43 245.98C189.217 245.831 189.054 245.631 188.942 245.38C188.83 245.129 188.774 244.849 188.774 244.54C188.774 244.225 188.83 243.943 188.942 243.692C189.06 243.441 189.225 243.244 189.438 243.1C189.657 242.951 189.921 242.876 190.23 242.876C190.449 242.876 190.636 242.913 190.79 242.988C190.945 243.063 191.068 243.153 191.158 243.26C191.249 243.367 191.316 243.468 191.358 243.564C191.406 243.655 191.438 243.719 191.454 243.756H191.47V241.62H191.846V246.124H191.542L191.478 245.34H191.462C191.446 245.367 191.412 245.428 191.358 245.524C191.31 245.615 191.238 245.713 191.142 245.82C191.046 245.927 190.921 246.017 190.766 246.092C190.617 246.167 190.436 246.204 190.222 246.204ZM190.27 245.86C190.489 245.86 190.686 245.809 190.862 245.708C191.044 245.607 191.188 245.457 191.294 245.26C191.401 245.057 191.454 244.817 191.454 244.54C191.454 244.263 191.404 244.028 191.302 243.836C191.206 243.639 191.073 243.489 190.902 243.388C190.732 243.281 190.54 243.228 190.326 243.228C190.06 243.228 189.838 243.292 189.662 243.42C189.486 243.543 189.353 243.705 189.262 243.908C189.177 244.105 189.134 244.316 189.134 244.54C189.134 244.759 189.172 244.972 189.246 245.18C189.326 245.383 189.449 245.548 189.614 245.676C189.785 245.799 190.004 245.86 190.27 245.86ZM194.675 246.196C194.376 246.196 194.128 246.121 193.931 245.972C193.733 245.823 193.587 245.623 193.491 245.372C193.395 245.116 193.347 244.833 193.347 244.524C193.347 244.199 193.395 243.911 193.491 243.66C193.592 243.409 193.741 243.212 193.939 243.068C194.141 242.919 194.387 242.844 194.675 242.844C194.835 242.844 194.976 242.865 195.099 242.908C195.221 242.951 195.331 243.007 195.427 243.076C195.523 243.145 195.603 243.225 195.667 243.316C195.736 243.401 195.789 243.495 195.827 243.596H195.835V242.876H196.211V246.124H195.907L195.843 245.452H195.827C195.784 245.548 195.728 245.641 195.659 245.732C195.595 245.817 195.515 245.897 195.419 245.972C195.323 246.041 195.213 246.095 195.091 246.132C194.968 246.175 194.829 246.196 194.675 246.196ZM194.811 245.86C195.04 245.86 195.229 245.807 195.379 245.7C195.533 245.593 195.648 245.441 195.723 245.244C195.797 245.041 195.835 244.804 195.835 244.532C195.835 244.233 195.795 243.988 195.715 243.796C195.635 243.599 195.517 243.449 195.363 243.348C195.213 243.247 195.029 243.196 194.811 243.196C194.56 243.196 194.352 243.255 194.187 243.372C194.027 243.489 193.907 243.647 193.827 243.844C193.752 244.041 193.715 244.268 193.715 244.524C193.715 244.785 193.755 245.017 193.835 245.22C193.915 245.423 194.035 245.58 194.195 245.692C194.36 245.804 194.565 245.86 194.811 245.86ZM197.483 247.548V247.244H197.899C197.974 247.244 198.035 247.231 198.083 247.204C198.131 247.177 198.179 247.127 198.227 247.052C198.281 246.983 198.339 246.879 198.403 246.74L198.803 245.868L197.531 242.876H197.915L198.995 245.468L200.139 242.876H200.531L198.723 246.804C198.654 246.964 198.59 247.092 198.531 247.188C198.473 247.289 198.414 247.367 198.355 247.42C198.297 247.473 198.23 247.508 198.155 247.524C198.086 247.54 198.006 247.548 197.915 247.548H197.483Z" fill="#49306F"/>
<path d="M287.411 241.764V246.124H287.051V241.764H287.411ZM285.547 241.948V241.62H288.907V241.948H285.547ZM291.019 246.204C290.816 246.204 290.64 246.175 290.491 246.116C290.347 246.057 290.227 245.977 290.131 245.876C290.035 245.769 289.96 245.649 289.907 245.516C289.853 245.377 289.816 245.228 289.795 245.068C289.773 244.908 289.763 244.743 289.763 244.572V242.876H290.123V244.572C290.123 244.812 290.147 245.031 290.195 245.228C290.248 245.425 290.347 245.583 290.491 245.7C290.635 245.812 290.84 245.868 291.107 245.868C291.363 245.868 291.565 245.809 291.715 245.692C291.869 245.569 291.984 245.415 292.059 245.228C292.133 245.036 292.176 244.833 292.187 244.62V242.876H292.563V246.124H292.259L292.195 245.348H292.179C292.152 245.433 292.109 245.524 292.051 245.62C291.992 245.716 291.915 245.809 291.819 245.9C291.728 245.991 291.616 246.065 291.483 246.124C291.349 246.177 291.195 246.204 291.019 246.204ZM295.735 246.204C295.388 246.204 295.1 246.121 294.871 245.956C294.647 245.791 294.479 245.58 294.367 245.324C294.255 245.063 294.201 244.793 294.207 244.516C294.207 244.228 294.265 243.959 294.383 243.708C294.5 243.457 294.671 243.257 294.895 243.108C295.124 242.953 295.401 242.876 295.727 242.876C295.999 242.876 296.239 242.937 296.447 243.06C296.66 243.177 296.831 243.345 296.959 243.564C297.087 243.777 297.159 244.033 297.175 244.332C297.18 244.359 297.183 244.391 297.183 244.428C297.183 244.465 297.183 244.5 297.183 244.532H294.559C294.559 244.943 294.66 245.271 294.863 245.516C295.071 245.761 295.361 245.884 295.735 245.884C296.007 245.884 296.241 245.812 296.439 245.668C296.641 245.524 296.767 245.329 296.815 245.084H297.175C297.137 245.303 297.052 245.497 296.919 245.668C296.785 245.833 296.617 245.964 296.415 246.06C296.212 246.156 295.985 246.204 295.735 246.204ZM294.583 244.292H296.807C296.801 244.191 296.777 244.079 296.735 243.956C296.697 243.828 296.636 243.705 296.551 243.588C296.465 243.471 296.353 243.375 296.215 243.3C296.081 243.225 295.919 243.188 295.727 243.188C295.551 243.188 295.396 243.22 295.263 243.284C295.129 243.343 295.015 243.423 294.919 243.524C294.828 243.625 294.753 243.743 294.695 243.876C294.641 244.004 294.604 244.143 294.583 244.292ZM300.137 246.204C299.918 246.204 299.732 246.175 299.577 246.116C299.422 246.052 299.294 245.972 299.193 245.876C299.092 245.78 299.012 245.681 298.953 245.58C298.894 245.479 298.852 245.385 298.825 245.3C298.804 245.215 298.793 245.151 298.793 245.108H299.153C299.153 245.113 299.158 245.159 299.169 245.244C299.185 245.324 299.222 245.417 299.281 245.524C299.345 245.631 299.444 245.724 299.577 245.804C299.71 245.879 299.897 245.916 300.137 245.916C300.313 245.916 300.473 245.897 300.617 245.86C300.761 245.817 300.876 245.753 300.961 245.668C301.046 245.577 301.089 245.46 301.089 245.316C301.089 245.145 301.033 245.015 300.921 244.924C300.814 244.828 300.676 244.759 300.505 244.716C300.334 244.668 300.156 244.625 299.969 244.588C299.782 244.545 299.604 244.492 299.433 244.428C299.268 244.364 299.132 244.271 299.025 244.148C298.924 244.025 298.873 243.857 298.873 243.644C298.878 243.388 298.998 243.183 299.233 243.028C299.468 242.868 299.769 242.788 300.137 242.788C300.276 242.788 300.422 242.804 300.577 242.836C300.732 242.868 300.873 242.924 301.001 243.004C301.134 243.084 301.241 243.193 301.321 243.332C301.406 243.471 301.441 243.652 301.425 243.876H301.073C301.078 243.711 301.049 243.577 300.985 243.476C300.926 243.375 300.844 243.297 300.737 243.244C300.636 243.185 300.529 243.148 300.417 243.132C300.305 243.116 300.204 243.108 300.113 243.108C299.862 243.108 299.649 243.153 299.473 243.244C299.302 243.335 299.217 243.473 299.217 243.66C299.217 243.815 299.27 243.935 299.377 244.02C299.484 244.105 299.622 244.172 299.793 244.22C299.964 244.263 300.142 244.303 300.329 244.34C300.516 244.377 300.694 244.431 300.865 244.5C301.036 244.569 301.174 244.668 301.281 244.796C301.388 244.924 301.441 245.103 301.441 245.332C301.441 245.54 301.382 245.708 301.265 245.836C301.153 245.964 300.998 246.057 300.801 246.116C300.604 246.175 300.382 246.204 300.137 246.204ZM304.541 246.204C304.232 246.204 303.968 246.129 303.749 245.98C303.536 245.831 303.373 245.631 303.261 245.38C303.149 245.129 303.093 244.849 303.093 244.54C303.093 244.225 303.149 243.943 303.261 243.692C303.378 243.441 303.544 243.244 303.757 243.1C303.976 242.951 304.24 242.876 304.549 242.876C304.768 242.876 304.954 242.913 305.109 242.988C305.264 243.063 305.386 243.153 305.477 243.26C305.568 243.367 305.634 243.468 305.677 243.564C305.725 243.655 305.757 243.719 305.773 243.756H305.789V241.62H306.165V246.124H305.861L305.797 245.34H305.781C305.765 245.367 305.73 245.428 305.677 245.524C305.629 245.615 305.557 245.713 305.461 245.82C305.365 245.927 305.24 246.017 305.085 246.092C304.936 246.167 304.754 246.204 304.541 246.204ZM304.589 245.86C304.808 245.86 305.005 245.809 305.181 245.708C305.362 245.607 305.506 245.457 305.613 245.26C305.72 245.057 305.773 244.817 305.773 244.54C305.773 244.263 305.722 244.028 305.621 243.836C305.525 243.639 305.392 243.489 305.221 243.388C305.05 243.281 304.858 243.228 304.645 243.228C304.378 243.228 304.157 243.292 303.981 243.42C303.805 243.543 303.672 243.705 303.581 243.908C303.496 244.105 303.453 244.316 303.453 244.54C303.453 244.759 303.49 244.972 303.565 245.18C303.645 245.383 303.768 245.548 303.933 245.676C304.104 245.799 304.322 245.86 304.589 245.86ZM308.993 246.196C308.695 246.196 308.447 246.121 308.249 245.972C308.052 245.823 307.905 245.623 307.809 245.372C307.713 245.116 307.665 244.833 307.665 244.524C307.665 244.199 307.713 243.911 307.809 243.66C307.911 243.409 308.06 243.212 308.257 243.068C308.46 242.919 308.705 242.844 308.993 242.844C309.153 242.844 309.295 242.865 309.417 242.908C309.54 242.951 309.649 243.007 309.745 243.076C309.841 243.145 309.921 243.225 309.985 243.316C310.055 243.401 310.108 243.495 310.145 243.596H310.153V242.876H310.529V246.124H310.225L310.161 245.452H310.145C310.103 245.548 310.047 245.641 309.977 245.732C309.913 245.817 309.833 245.897 309.737 245.972C309.641 246.041 309.532 246.095 309.409 246.132C309.287 246.175 309.148 246.196 308.993 246.196ZM309.129 245.86C309.359 245.86 309.548 245.807 309.697 245.7C309.852 245.593 309.967 245.441 310.041 245.244C310.116 245.041 310.153 244.804 310.153 244.532C310.153 244.233 310.113 243.988 310.033 243.796C309.953 243.599 309.836 243.449 309.681 243.348C309.532 243.247 309.348 243.196 309.129 243.196C308.879 243.196 308.671 243.255 308.505 243.372C308.345 243.489 308.225 243.647 308.145 243.844C308.071 244.041 308.033 244.268 308.033 244.524C308.033 244.785 308.073 245.017 308.153 245.22C308.233 245.423 308.353 245.58 308.513 245.692C308.679 245.804 308.884 245.86 309.129 245.86ZM311.802 247.548V247.244H312.218C312.293 247.244 312.354 247.231 312.402 247.204C312.45 247.177 312.498 247.127 312.546 247.052C312.599 246.983 312.658 246.879 312.722 246.74L313.122 245.868L311.85 242.876H312.234L313.314 245.468L314.458 242.876H314.85L313.042 246.804C312.973 246.964 312.909 247.092 312.85 247.188C312.791 247.289 312.733 247.367 312.674 247.42C312.615 247.473 312.549 247.508 312.474 247.524C312.405 247.54 312.325 247.548 312.234 247.548H311.802Z" fill="#49306F"/>
<path d="M406.956 241.764V246.124H406.596V241.764H406.956ZM405.092 241.948V241.62H408.452V241.948H405.092ZM410.564 246.204C410.361 246.204 410.185 246.175 410.036 246.116C409.892 246.057 409.772 245.977 409.676 245.876C409.58 245.769 409.505 245.649 409.452 245.516C409.399 245.377 409.361 245.228 409.34 245.068C409.319 244.908 409.308 244.743 409.308 244.572V242.876H409.668V244.572C409.668 244.812 409.692 245.031 409.74 245.228C409.793 245.425 409.892 245.583 410.036 245.7C410.18 245.812 410.385 245.868 410.652 245.868C410.908 245.868 411.111 245.809 411.26 245.692C411.415 245.569 411.529 245.415 411.604 245.228C411.679 245.036 411.721 244.833 411.732 244.62V242.876H412.108V246.124H411.804L411.74 245.348H411.724C411.697 245.433 411.655 245.524 411.596 245.62C411.537 245.716 411.46 245.809 411.364 245.9C411.273 245.991 411.161 246.065 411.028 246.124C410.895 246.177 410.74 246.204 410.564 246.204ZM415.28 246.204C414.933 246.204 414.645 246.121 414.416 245.956C414.192 245.791 414.024 245.58 413.912 245.324C413.8 245.063 413.747 244.793 413.752 244.516C413.752 244.228 413.811 243.959 413.928 243.708C414.045 243.457 414.216 243.257 414.44 243.108C414.669 242.953 414.947 242.876 415.272 242.876C415.544 242.876 415.784 242.937 415.992 243.06C416.205 243.177 416.376 243.345 416.504 243.564C416.632 243.777 416.704 244.033 416.72 244.332C416.725 244.359 416.728 244.391 416.728 244.428C416.728 244.465 416.728 244.5 416.728 244.532H414.104C414.104 244.943 414.205 245.271 414.408 245.516C414.616 245.761 414.907 245.884 415.28 245.884C415.552 245.884 415.787 245.812 415.984 245.668C416.187 245.524 416.312 245.329 416.36 245.084H416.72C416.683 245.303 416.597 245.497 416.464 245.668C416.331 245.833 416.163 245.964 415.96 246.06C415.757 246.156 415.531 246.204 415.28 246.204ZM414.128 244.292H416.352C416.347 244.191 416.323 244.079 416.28 243.956C416.243 243.828 416.181 243.705 416.096 243.588C416.011 243.471 415.899 243.375 415.76 243.3C415.627 243.225 415.464 243.188 415.272 243.188C415.096 243.188 414.941 243.22 414.808 243.284C414.675 243.343 414.56 243.423 414.464 243.524C414.373 243.625 414.299 243.743 414.24 243.876C414.187 244.004 414.149 244.143 414.128 244.292ZM419.682 246.204C419.464 246.204 419.277 246.175 419.122 246.116C418.968 246.052 418.84 245.972 418.738 245.876C418.637 245.78 418.557 245.681 418.498 245.58C418.44 245.479 418.397 245.385 418.37 245.3C418.349 245.215 418.338 245.151 418.338 245.108H418.698C418.698 245.113 418.704 245.159 418.714 245.244C418.73 245.324 418.768 245.417 418.826 245.524C418.89 245.631 418.989 245.724 419.122 245.804C419.256 245.879 419.442 245.916 419.682 245.916C419.858 245.916 420.018 245.897 420.162 245.86C420.306 245.817 420.421 245.753 420.506 245.668C420.592 245.577 420.634 245.46 420.634 245.316C420.634 245.145 420.578 245.015 420.466 244.924C420.36 244.828 420.221 244.759 420.05 244.716C419.88 244.668 419.701 244.625 419.514 244.588C419.328 244.545 419.149 244.492 418.978 244.428C418.813 244.364 418.677 244.271 418.57 244.148C418.469 244.025 418.418 243.857 418.418 243.644C418.424 243.388 418.544 243.183 418.778 243.028C419.013 242.868 419.314 242.788 419.682 242.788C419.821 242.788 419.968 242.804 420.122 242.836C420.277 242.868 420.418 242.924 420.546 243.004C420.68 243.084 420.786 243.193 420.866 243.332C420.952 243.471 420.986 243.652 420.97 243.876H420.618C420.624 243.711 420.594 243.577 420.53 243.476C420.472 243.375 420.389 243.297 420.282 243.244C420.181 243.185 420.074 243.148 419.962 243.132C419.85 243.116 419.749 243.108 419.658 243.108C419.408 243.108 419.194 243.153 419.018 243.244C418.848 243.335 418.762 243.473 418.762 243.66C418.762 243.815 418.816 243.935 418.922 244.02C419.029 244.105 419.168 244.172 419.338 244.22C419.509 244.263 419.688 244.303 419.874 244.34C420.061 244.377 420.24 244.431 420.41 244.5C420.581 244.569 420.72 244.668 420.826 244.796C420.933 244.924 420.986 245.103 420.986 245.332C420.986 245.54 420.928 245.708 420.81 245.836C420.698 245.964 420.544 246.057 420.346 246.116C420.149 246.175 419.928 246.204 419.682 246.204ZM424.086 246.204C423.777 246.204 423.513 246.129 423.294 245.98C423.081 245.831 422.918 245.631 422.806 245.38C422.694 245.129 422.638 244.849 422.638 244.54C422.638 244.225 422.694 243.943 422.806 243.692C422.924 243.441 423.089 243.244 423.302 243.1C423.521 242.951 423.785 242.876 424.094 242.876C424.313 242.876 424.5 242.913 424.654 242.988C424.809 243.063 424.932 243.153 425.022 243.26C425.113 243.367 425.18 243.468 425.222 243.564C425.27 243.655 425.302 243.719 425.318 243.756H425.334V241.62H425.71V246.124H425.406L425.342 245.34H425.326C425.31 245.367 425.276 245.428 425.222 245.524C425.174 245.615 425.102 245.713 425.006 245.82C424.91 245.927 424.785 246.017 424.63 246.092C424.481 246.167 424.3 246.204 424.086 246.204ZM424.134 245.86C424.353 245.86 424.55 245.809 424.726 245.708C424.908 245.607 425.052 245.457 425.158 245.26C425.265 245.057 425.318 244.817 425.318 244.54C425.318 244.263 425.268 244.028 425.166 243.836C425.07 243.639 424.937 243.489 424.766 243.388C424.596 243.281 424.404 243.228 424.19 243.228C423.924 243.228 423.702 243.292 423.526 243.42C423.35 243.543 423.217 243.705 423.126 243.908C423.041 244.105 422.998 244.316 422.998 244.54C422.998 244.759 423.036 244.972 423.11 245.18C423.19 245.383 423.313 245.548 423.478 245.676C423.649 245.799 423.868 245.86 424.134 245.86ZM428.539 246.196C428.24 246.196 427.992 246.121 427.795 245.972C427.597 245.823 427.451 245.623 427.355 245.372C427.259 245.116 427.211 244.833 427.211 244.524C427.211 244.199 427.259 243.911 427.355 243.66C427.456 243.409 427.605 243.212 427.803 243.068C428.005 242.919 428.251 242.844 428.539 242.844C428.699 242.844 428.84 242.865 428.963 242.908C429.085 242.951 429.195 243.007 429.291 243.076C429.387 243.145 429.467 243.225 429.531 243.316C429.6 243.401 429.653 243.495 429.691 243.596H429.699V242.876H430.075V246.124H429.771L429.707 245.452H429.691C429.648 245.548 429.592 245.641 429.523 245.732C429.459 245.817 429.379 245.897 429.283 245.972C429.187 246.041 429.077 246.095 428.955 246.132C428.832 246.175 428.693 246.196 428.539 246.196ZM428.675 245.86C428.904 245.86 429.093 245.807 429.243 245.7C429.397 245.593 429.512 245.441 429.587 245.244C429.661 245.041 429.699 244.804 429.699 244.532C429.699 244.233 429.659 243.988 429.579 243.796C429.499 243.599 429.381 243.449 429.227 243.348C429.077 243.247 428.893 243.196 428.675 243.196C428.424 243.196 428.216 243.255 428.051 243.372C427.891 243.489 427.771 243.647 427.691 243.844C427.616 244.041 427.579 244.268 427.579 244.524C427.579 244.785 427.619 245.017 427.699 245.22C427.779 245.423 427.899 245.58 428.059 245.692C428.224 245.804 428.429 245.86 428.675 245.86ZM431.347 247.548V247.244H431.763C431.838 247.244 431.899 247.231 431.947 247.204C431.995 247.177 432.043 247.127 432.091 247.052C432.145 246.983 432.203 246.879 432.267 246.74L432.667 245.868L431.395 242.876H431.779L432.859 245.468L434.003 242.876H434.395L432.587 246.804C432.518 246.964 432.454 247.092 432.395 247.188C432.337 247.289 432.278 247.367 432.219 247.42C432.161 247.473 432.094 247.508 432.019 247.524C431.95 247.54 431.87 247.548 431.779 247.548H431.347Z" fill="#49306F"/>
<path d="M527.657 241.764V246.124H527.297V241.764H527.657ZM525.793 241.948V241.62H529.153V241.948H525.793ZM531.265 246.204C531.062 246.204 530.886 246.175 530.737 246.116C530.593 246.057 530.473 245.977 530.377 245.876C530.281 245.769 530.206 245.649 530.153 245.516C530.099 245.377 530.062 245.228 530.041 245.068C530.019 244.908 530.009 244.743 530.009 244.572V242.876H530.369V244.572C530.369 244.812 530.393 245.031 530.441 245.228C530.494 245.425 530.593 245.583 530.737 245.7C530.881 245.812 531.086 245.868 531.353 245.868C531.609 245.868 531.811 245.809 531.961 245.692C532.115 245.569 532.23 245.415 532.305 245.228C532.379 245.036 532.422 244.833 532.433 244.62V242.876H532.809V246.124H532.505L532.441 245.348H532.425C532.398 245.433 532.355 245.524 532.297 245.62C532.238 245.716 532.161 245.809 532.065 245.9C531.974 245.991 531.862 246.065 531.729 246.124C531.595 246.177 531.441 246.204 531.265 246.204ZM535.981 246.204C535.634 246.204 535.346 246.121 535.117 245.956C534.893 245.791 534.725 245.58 534.613 245.324C534.501 245.063 534.447 244.793 534.453 244.516C534.453 244.228 534.511 243.959 534.629 243.708C534.746 243.457 534.917 243.257 535.141 243.108C535.37 242.953 535.647 242.876 535.973 242.876C536.245 242.876 536.485 242.937 536.693 243.06C536.906 243.177 537.077 243.345 537.205 243.564C537.333 243.777 537.405 244.033 537.421 244.332C537.426 244.359 537.429 244.391 537.429 244.428C537.429 244.465 537.429 244.5 537.429 244.532H534.805C534.805 244.943 534.906 245.271 535.109 245.516C535.317 245.761 535.607 245.884 535.981 245.884C536.253 245.884 536.487 245.812 536.685 245.668C536.887 245.524 537.013 245.329 537.061 245.084H537.421C537.383 245.303 537.298 245.497 537.165 245.668C537.031 245.833 536.863 245.964 536.661 246.06C536.458 246.156 536.231 246.204 535.981 246.204ZM534.829 244.292H537.053C537.047 244.191 537.023 244.079 536.981 243.956C536.943 243.828 536.882 243.705 536.797 243.588C536.711 243.471 536.599 243.375 536.461 243.3C536.327 243.225 536.165 243.188 535.973 243.188C535.797 243.188 535.642 243.22 535.509 243.284C535.375 243.343 535.261 243.423 535.165 243.524C535.074 243.625 534.999 243.743 534.941 243.876C534.887 244.004 534.85 244.143 534.829 244.292ZM540.383 246.204C540.164 246.204 539.978 246.175 539.823 246.116C539.668 246.052 539.54 245.972 539.439 245.876C539.338 245.78 539.258 245.681 539.199 245.58C539.14 245.479 539.098 245.385 539.071 245.3C539.05 245.215 539.039 245.151 539.039 245.108H539.399C539.399 245.113 539.404 245.159 539.415 245.244C539.431 245.324 539.468 245.417 539.527 245.524C539.591 245.631 539.69 245.724 539.823 245.804C539.956 245.879 540.143 245.916 540.383 245.916C540.559 245.916 540.719 245.897 540.863 245.86C541.007 245.817 541.122 245.753 541.207 245.668C541.292 245.577 541.335 245.46 541.335 245.316C541.335 245.145 541.279 245.015 541.167 244.924C541.06 244.828 540.922 244.759 540.751 244.716C540.58 244.668 540.402 244.625 540.215 244.588C540.028 244.545 539.85 244.492 539.679 244.428C539.514 244.364 539.378 244.271 539.271 244.148C539.17 244.025 539.119 243.857 539.119 243.644C539.124 243.388 539.244 243.183 539.479 243.028C539.714 242.868 540.015 242.788 540.383 242.788C540.522 242.788 540.668 242.804 540.823 242.836C540.978 242.868 541.119 242.924 541.247 243.004C541.38 243.084 541.487 243.193 541.567 243.332C541.652 243.471 541.687 243.652 541.671 243.876H541.319C541.324 243.711 541.295 243.577 541.231 243.476C541.172 243.375 541.09 243.297 540.983 243.244C540.882 243.185 540.775 243.148 540.663 243.132C540.551 243.116 540.45 243.108 540.359 243.108C540.108 243.108 539.895 243.153 539.719 243.244C539.548 243.335 539.463 243.473 539.463 243.66C539.463 243.815 539.516 243.935 539.623 244.02C539.73 244.105 539.868 244.172 540.039 244.22C540.21 244.263 540.388 244.303 540.575 244.34C540.762 244.377 540.94 244.431 541.111 244.5C541.282 244.569 541.42 244.668 541.527 244.796C541.634 244.924 541.687 245.103 541.687 245.332C541.687 245.54 541.628 245.708 541.511 245.836C541.399 245.964 541.244 246.057 541.047 246.116C540.85 246.175 540.628 246.204 540.383 246.204ZM544.787 246.204C544.478 246.204 544.214 246.129 543.995 245.98C543.782 245.831 543.619 245.631 543.507 245.38C543.395 245.129 543.339 244.849 543.339 244.54C543.339 244.225 543.395 243.943 543.507 243.692C543.624 243.441 543.79 243.244 544.003 243.1C544.222 242.951 544.486 242.876 544.795 242.876C545.014 242.876 545.2 242.913 545.355 242.988C545.51 243.063 545.632 243.153 545.723 243.26C545.814 243.367 545.88 243.468 545.923 243.564C545.971 243.655 546.003 243.719 546.019 243.756H546.035V241.62H546.411V246.124H546.107L546.043 245.34H546.027C546.011 245.367 545.976 245.428 545.923 245.524C545.875 245.615 545.803 245.713 545.707 245.82C545.611 245.927 545.486 246.017 545.331 246.092C545.182 246.167 545 246.204 544.787 246.204ZM544.835 245.86C545.054 245.86 545.251 245.809 545.427 245.708C545.608 245.607 545.752 245.457 545.859 245.26C545.966 245.057 546.019 244.817 546.019 244.54C546.019 244.263 545.968 244.028 545.867 243.836C545.771 243.639 545.638 243.489 545.467 243.388C545.296 243.281 545.104 243.228 544.891 243.228C544.624 243.228 544.403 243.292 544.227 243.42C544.051 243.543 543.918 243.705 543.827 243.908C543.742 244.105 543.699 244.316 543.699 244.54C543.699 244.759 543.736 244.972 543.811 245.18C543.891 245.383 544.014 245.548 544.179 245.676C544.35 245.799 544.568 245.86 544.835 245.86ZM549.239 246.196C548.941 246.196 548.693 246.121 548.495 245.972C548.298 245.823 548.151 245.623 548.055 245.372C547.959 245.116 547.911 244.833 547.911 244.524C547.911 244.199 547.959 243.911 548.055 243.66C548.157 243.409 548.306 243.212 548.503 243.068C548.706 242.919 548.951 242.844 549.239 242.844C549.399 242.844 549.541 242.865 549.663 242.908C549.786 242.951 549.895 243.007 549.991 243.076C550.087 243.145 550.167 243.225 550.231 243.316C550.301 243.401 550.354 243.495 550.391 243.596H550.399V242.876H550.775V246.124H550.471L550.407 245.452H550.391C550.349 245.548 550.293 245.641 550.223 245.732C550.159 245.817 550.079 245.897 549.983 245.972C549.887 246.041 549.778 246.095 549.655 246.132C549.533 246.175 549.394 246.196 549.239 246.196ZM549.375 245.86C549.605 245.86 549.794 245.807 549.943 245.7C550.098 245.593 550.213 245.441 550.287 245.244C550.362 245.041 550.399 244.804 550.399 244.532C550.399 244.233 550.359 243.988 550.279 243.796C550.199 243.599 550.082 243.449 549.927 243.348C549.778 243.247 549.594 243.196 549.375 243.196C549.125 243.196 548.917 243.255 548.751 243.372C548.591 243.489 548.471 243.647 548.391 243.844C548.317 244.041 548.279 244.268 548.279 244.524C548.279 244.785 548.319 245.017 548.399 245.22C548.479 245.423 548.599 245.58 548.759 245.692C548.925 245.804 549.13 245.86 549.375 245.86ZM552.048 247.548V247.244H552.464C552.539 247.244 552.6 247.231 552.648 247.204C552.696 247.177 552.744 247.127 552.792 247.052C552.845 246.983 552.904 246.879 552.968 246.74L553.368 245.868L552.096 242.876H552.48L553.56 245.468L554.704 242.876H555.096L553.288 246.804C553.219 246.964 553.155 247.092 553.096 247.188C553.037 247.289 552.979 247.367 552.92 247.42C552.861 247.473 552.795 247.508 552.72 247.524C552.651 247.54 552.571 247.548 552.48 247.548H552.048Z" fill="#49306F"/>
<path d="M46.6179 109.894C71.9412 105.191 98.6754 99.7068 122.036 88.6631C133.653 83.1713 141.467 73.2467 151.77 66.3338C156.529 63.1403 160.841 57.8925 166.714 56.5968C173.327 55.1379 181.256 55.4977 188.008 55.9379C200.456 56.7496 209.678 66.4544 222.774 66.9927C252.059 68.1966 284.562 58.6319 309.265 44.0046C315.864 40.0973 329.572 28.9774 338.689 31.0463C346.916 32.9132 351.197 44.8602 358.202 49.2757C365.756 54.0374 375.733 50.9308 383.212 54.6201C392.102 59.0054 399.154 59.8181 409.074 59.8181C412.775 59.8181 416.819 60.2569 420.456 59.5252C426.321 58.3455 432.3 54.3597 438.575 56.1575C446.793 58.5122 454.984 60.9307 463.663 61.1359C476.214 61.4326 488.808 62.3126 501.295 63.4786C513.366 64.6059 524.994 60.7341 536.758 58.7931C548.472 56.8605 555.789 55.2408 562.775 65.5285C567.369 72.2923 568.701 80.3418 573.151 87.1989C576.973 93.0876 582.281 91.844 587.863 95.3985C594.38 99.5484 602.043 104.126 609.079 107.405C614.277 109.828 620.219 107.39 625.34 110.187C630.5 113.006 633.733 118.757 638.968 121.169C643.13 123.086 658.697 120.581 662.971 118.094C664.853 116.999 666.832 118.397 668.546 116.776C669.804 115.587 669.469 114.583 671.024 113.848" stroke="#FF9500" stroke-width="2" stroke-linecap="round"/>
<path d="M46.6179 179.854C58.0541 182.445 69.9637 188.226 81.2946 183.166C87.0578 180.593 94.7936 178.437 100.636 177.295C111.118 175.248 121.642 177.154 132.077 174.134C141.97 171.271 146.807 153.463 157.275 152.757C163.29 152.352 169.072 147.017 174.922 144.478C185.33 139.959 196.733 141.919 207.518 141.919C225.816 141.919 243.262 133.789 261.613 133.789C272.458 133.789 282.436 129.527 292.899 125.811C304.366 121.738 315.503 125.66 326.882 125.66C339.803 125.66 352.723 125.66 365.643 125.66C370.529 125.66 374.835 123.462 379.437 120.09C383.226 117.315 384.833 109.755 389.531 109.402C394.651 109.018 399.819 109.402 404.943 109.402C427.47 109.402 449.997 109.402 472.524 109.402C483.502 109.402 493.376 101.855 504.196 101.273C519.591 100.445 535.038 102.31 550.431 101.273C555.876 100.906 560.604 95.8537 566.074 95.8537C571.751 95.8537 577.427 95.8537 583.104 95.8537C596.474 95.8537 608.758 76.8858 622.559 76.8858C629.028 76.8858 636.909 79.3309 643.133 75.531C648.148 72.4698 651.856 67.1599 656.619 63.9395C661.637 60.5457 669.427 68.6918 672.185 57.918" stroke="#32ADE6" stroke-width="2" stroke-linecap="round"/>
<path d="M46.6179 214.158C58.19 215.44 70.2411 218.302 81.7066 215.797C87.5383 214.523 95.3661 213.456 101.278 212.891C111.884 211.877 122.533 212.821 133.092 211.326C143.103 209.908 147.998 201.092 158.59 200.743C164.676 200.543 170.527 197.901 176.446 196.644C186.979 194.407 198.516 195.377 209.429 195.377C227.946 195.377 245.599 191.353 264.168 191.353C275.141 191.353 285.238 189.243 295.826 187.403C307.429 185.387 318.698 187.329 330.213 187.329C343.286 187.329 356.36 187.329 369.434 187.329C374.378 187.329 378.735 186.24 383.391 184.571C387.226 183.197 388.852 179.455 393.606 179.28C398.786 179.089 404.016 179.28 409.201 179.28C431.996 179.28 454.79 179.28 477.585 179.28C488.694 179.28 498.684 175.543 509.633 175.255C525.211 174.846 540.842 175.769 556.418 175.255C561.927 175.074 566.712 172.572 572.247 172.572C577.991 172.572 583.735 172.572 589.479 172.572C603.008 172.572 615.437 163.182 629.402 163.182C635.949 163.182 643.923 164.393 650.221 162.511C655.295 160.996 659.048 158.367 663.867 156.773C668.945 155.093 676.828 159.126 679.618 153.792" stroke="#5856D6" stroke-width="2" stroke-linecap="round"/>
<path d="M127.862 260.871L127.862 0.871085" stroke="#7C70C3" stroke-linecap="square" stroke-dasharray="2 2"/>
<path d="M249.729 260.871L249.729 0.871085" stroke="#7C70C3" stroke-linecap="square" stroke-dasharray="2 2"/>
<path d="M361.147 260.871L361.147 0.871085" stroke="#7C70C3" stroke-linecap="square" stroke-dasharray="2 2"/>
<path d="M483.01 260.871L483.01 0.871094" stroke="#7C70C3" stroke-linecap="square" stroke-dasharray="2 2"/>
<path d="M599.072 260.871L599.072 0.871085" stroke="#7C70C3" stroke-linecap="square" stroke-dasharray="2 2"/>
<path d="M479.243 155.975H486.778L483.011 148.474L479.243 155.975Z" fill="#F81212" stroke="#F81212" stroke-width="3"/>
<path d="M356.692 110.99H365.6L361.147 103.177L356.692 110.99Z" fill="#F81212" stroke="#F81212" stroke-width="3"/>
</svg>
