<svg width="11" height="11" viewBox="0 0 11 11" fill="none" xmlns="http://www.w3.org/2000/svg">
<path d="M5.34 6.8C4.83867 6.8 4.428 6.72 4.108 6.56C3.788 6.4 3.53733 6.20267 3.356 5.968C3.18533 5.72267 3.05733 5.48267 2.972 5.248C2.89733 5.01333 2.84933 4.816 2.828 4.656C2.81733 4.496 2.812 4.41067 2.812 4.4H3.516C3.516 4.41067 3.52667 4.496 3.548 4.656C3.56933 4.816 3.63333 4.99733 3.74 5.2C3.85733 5.40267 4.03867 5.57867 4.284 5.728C4.54 5.87733 4.892 5.952 5.34 5.952V6.8ZM0.06 6.8V5.952H5.34V6.8H0.06ZM2.812 8.352C2.812 8.352 2.81733 8.272 2.828 8.112C2.84933 7.94133 2.89733 7.73867 2.972 7.504C3.05733 7.25867 3.18533 7.01867 3.356 6.784C3.53733 6.54933 3.788 6.352 4.108 6.192C4.428 6.032 4.83867 5.952 5.34 5.952V6.8C4.892 6.8 4.54 6.87467 4.284 7.024C4.03867 7.17333 3.85733 7.34933 3.74 7.552C3.63333 7.75467 3.56933 7.936 3.548 8.096C3.52667 8.24533 3.516 8.33067" fill="#13A719"/>
</svg>
