<svg width="16" height="15" viewBox="0 0 16 15" fill="none" xmlns="http://www.w3.org/2000/svg">
<path d="M11.5236 14.7781C11.5438 14.7839 11.9906 14.6591 12.5162 14.5008C13.042 14.3425 13.4675 14.1935 13.462 14.1697C13.4564 14.1459 13.3144 13.7893 13.1463 13.3773C12.8089 12.5499 12.5468 11.5078 12.4957 10.7909C12.3367 8.55645 13.1918 6.52253 14.8644 5.15652L15.2903 4.80865L14.8453 4.03795L14.4003 3.26719L13.932 3.43997C10.8638 4.57204 7.81022 3.48565 5.62336 0.484106C5.48058 0.288098 5.3554 0.132626 5.34518 0.138529C5.25103 0.192883 3.91339 1.4784 3.9015 1.52593C3.8929 1.56029 4.02179 1.74691 4.18795 1.94051C6.02764 4.08453 8.44977 5.29504 10.5993 5.14487L11.1149 5.10885L2.85076 9.90066L0.349504 11.3578L1.25005 12.9176L3.77603 11.4722L12.0385 6.72245L11.6827 7.27919C10.7597 8.72347 10.4906 10.6666 10.9153 12.821C11.0363 13.4348 11.447 14.7563 11.5236 14.7781Z" fill="#9695DF"/>
</svg>
