<svg viewBox="0 0 601 632" fill="none" xmlns="http://www.w3.org/2000/svg">
<path d="M396.779 410.752C369.699 430.442 356.459 379.758 353.224 351.954C350.743 324.931 335.811 279.186 295.939 308.407L273.452 330.304C330.452 316.995 328.921 358.487 321.031 380.897C322.53 412.575 335.139 470.825 373.581 450.406C412.023 429.986 419.109 462.712 417.847 481.628L453.353 450.406C445.779 428.983 423.859 391.061 396.779 410.752Z" fill="white"/>
<path d="M475.181 520.527C502.808 500.885 516.316 551.444 519.616 579.178C522.148 606.134 537.381 651.765 578.058 622.617L601 600.774C542.848 614.05 544.41 572.661 552.46 550.307C550.93 518.708 538.066 460.602 498.848 480.971C459.629 501.34 452.4 468.695 453.688 449.827L417.464 480.971C425.192 502.34 447.554 540.168 475.181 520.527Z" fill="white"/>
<path d="M123.327 111.752C96.2475 131.442 83.0073 80.7576 79.7722 52.9542C77.291 25.9306 62.3593 -19.814 22.4877 9.40652L0 31.3039C57.0005 17.9947 55.4697 59.4872 47.5793 81.8971C49.0785 113.575 61.6874 171.825 100.13 151.406C138.572 130.986 145.657 163.712 144.395 182.628L179.902 151.406C172.327 129.983 150.407 92.0613 123.327 111.752Z" fill="white"/>
<path d="M201.729 221.527C229.356 201.885 242.864 252.444 246.165 280.178C248.696 307.134 263.929 352.765 304.606 323.617L327.548 301.774C269.396 315.05 270.958 273.661 279.008 251.307C277.478 219.708 264.615 161.602 225.396 181.971C186.177 202.34 178.948 169.695 180.236 150.827L144.012 181.971C151.74 203.34 174.102 241.168 201.729 221.527Z" fill="white"/>
</svg>
