<svg viewBox="0 0 14 15" fill="none" xmlns="http://www.w3.org/2000/svg">
<g clip-path="url(#clip0_302_591)">
<path d="M8.5 1.24957H5.5C4.94772 1.24957 4.5 1.69729 4.5 2.24957V2.74957C4.5 3.30185 4.94772 3.74957 5.5 3.74957H8.5C9.05228 3.74957 9.5 3.30185 9.5 2.74957V2.24957C9.5 1.69729 9.05228 1.24957 8.5 1.24957Z" stroke="#250054" stroke-linecap="round" stroke-linejoin="round"/>
<path d="M9.5 9.24957H4.5" stroke="#250054" stroke-linecap="round" stroke-linejoin="round"/>
<path d="M9.75 2.24957H11.25C11.5152 2.24957 11.7696 2.35493 11.9571 2.54246C12.1446 2.73 12.25 2.98435 12.25 3.24957V13.2496C12.25 13.5148 12.1446 13.7692 11.9571 13.9567C11.7696 14.1442 11.5152 14.2496 11.25 14.2496H2.75C2.48478 14.2496 2.23043 14.1442 2.04289 13.9567C1.85536 13.7692 1.75 13.5148 1.75 13.2496V3.24957C1.75 2.98435 1.85536 2.73 2.04289 2.54246C2.23043 2.35493 2.48478 2.24957 2.75 2.24957H4.25" stroke="#250054" stroke-linecap="round" stroke-linejoin="round"/>
</g>
<defs>
<clipPath id="clip0_302_591">
<rect width="14" height="14" fill="white" transform="translate(0 0.749573)"/>
</clipPath>
</defs>
</svg>
