<svg width="14" height="15" viewBox="0 0 14 15" fill="none" xmlns="http://www.w3.org/2000/svg">
<g clip-path="url(#clip0_302_610)">
<path d="M11 6.24957H3C2.44772 6.24957 2 6.69729 2 7.24957V13.2496C2 13.8019 2.44772 14.2496 3 14.2496H11C11.5523 14.2496 12 13.8019 12 13.2496V7.24957C12 6.69729 11.5523 6.24957 11 6.24957Z" stroke="#250054" stroke-linecap="round" stroke-linejoin="round"/>
<path d="M10.5 6.24957V4.74957C10.5 3.82131 10.1313 2.93107 9.47487 2.2747C8.8185 1.61832 7.92826 1.24957 7 1.24957C6.07174 1.24957 5.1815 1.61832 4.52513 2.2747C3.86875 2.93107 3.5 3.82131 3.5 4.74957V6.24957" stroke="#250054" stroke-linecap="round" stroke-linejoin="round"/>
<path d="M7 10.7496C7.27614 10.7496 7.5 10.5257 7.5 10.2496C7.5 9.97343 7.27614 9.74957 7 9.74957C6.72386 9.74957 6.5 9.97343 6.5 10.2496C6.5 10.5257 6.72386 10.7496 7 10.7496Z" stroke="#250054" stroke-linecap="round" stroke-linejoin="round"/>
</g>
<defs>
<clipPath id="clip0_302_610">
<rect width="14" height="14" fill="white" transform="translate(0 0.749573)"/>
</clipPath>
</defs>
</svg>
