<svg viewBox="0 0 14 15" fill="none" xmlns="http://www.w3.org/2000/svg">
<g clip-path="url(#clip0_302_616)">
<path d="M8.35102 6.05616C8.2998 5.91125 8.22076 5.77948 8.12033 5.66727C7.9067 5.42859 7.59626 5.27838 7.25073 5.27838H6.34768C5.77253 5.27838 5.30627 5.74463 5.30627 6.31979C5.30627 6.80919 5.64704 7.23256 6.12514 7.33714L7.50004 7.6379C8.03564 7.75507 8.4174 8.2297 8.4174 8.77797C8.4174 9.4223 7.89506 9.94507 7.25073 9.94507H6.47295C5.96497 9.94507 5.53282 9.62042 5.37266 9.16729" stroke="#250054" stroke-linecap="round" stroke-linejoin="round"/>
<path d="M6.86194 5.27856V4.11188" stroke="#250054" stroke-linecap="round" stroke-linejoin="round"/>
<path d="M6.86194 11.1118V9.94513" stroke="#250054" stroke-linecap="round" stroke-linejoin="round"/>
<path d="M1.99841 14.248V11.748H4.49841" stroke="#250054" stroke-linecap="round" stroke-linejoin="round"/>
<path d="M13.3881 6.55353C14.0101 9.86147 11.9858 13.141 8.68077 14.0265C6.15122 14.7043 3.57023 13.7926 1.99829 11.9036" stroke="#250054" stroke-linecap="round" stroke-linejoin="round"/>
<path d="M0.611985 8.94564C-0.0100564 5.6377 2.01426 2.35824 5.31929 1.47267C7.84867 0.794922 10.4295 1.70649 12.0015 3.59522" stroke="#250054" stroke-linecap="round" stroke-linejoin="round"/>
<path d="M12.0015 1.25128V3.75128H9.50146" stroke="#250054" stroke-linecap="round" stroke-linejoin="round"/>
</g>
<defs>
<clipPath id="clip0_302_616">
<rect width="14" height="14" fill="white" transform="translate(0 0.749573)"/>
</clipPath>
</defs>
</svg>
