<svg width="10" height="10" viewBox="0 0 10 10" fill="none" xmlns="http://www.w3.org/2000/svg">
<path d="M6.48438 4.9209C7.72703 4.9209 8.73438 4.47318 8.73438 3.9209C8.73438 3.36861 7.72703 2.9209 6.48438 2.9209C5.24173 2.9209 4.23438 3.36861 4.23438 3.9209C4.23438 4.47318 5.24173 4.9209 6.48438 4.9209Z" stroke="#7C70C3" stroke-width="0.5" stroke-linecap="round" stroke-linejoin="round"/>
<path d="M4.23438 3.9209V6.9209C4.23438 7.4709 5.23438 7.9209 6.48438 7.9209C7.73438 7.9209 8.73438 7.4709 8.73438 6.9209V3.9209" stroke="#7C70C3" stroke-width="0.5" stroke-linecap="round" stroke-linejoin="round"/>
<path d="M8.73438 5.4209C8.73438 5.9709 7.73438 6.4209 6.48438 6.4209C5.23438 6.4209 4.23438 5.9709 4.23438 5.4209" stroke="#7C70C3" stroke-width="0.5" stroke-linecap="round" stroke-linejoin="round"/>
<path d="M6.52348 2.19442C5.65087 1.5976 4.94666 1.42475 4.48438 1.42493C3.23937 1.42493 2.23438 1.87493 2.23438 2.42493C2.23438 2.71993 2.83329 3.06031 3.29329 3.25031" stroke="#7C70C3" stroke-width="0.5" stroke-linecap="round" stroke-linejoin="round"/>
<path d="M3.23205 6.17579C2.77205 5.98578 2.23438 5.72078 2.23438 5.42578V2.42578" stroke="#7C70C3" stroke-width="0.5" stroke-linecap="round" stroke-linejoin="round"/>
<path d="M3.30859 4.67578C2.84859 4.48578 2.23438 4.22078 2.23438 3.92578" stroke="#7C70C3" stroke-width="0.5" stroke-linecap="round" stroke-linejoin="round"/>
</svg>
