<svg width="10" height="11" viewBox="0 0 10 11" fill="none" xmlns="http://www.w3.org/2000/svg">
<g clip-path="url(#clip0_302_256)">
<path d="M5.48438 9.46777C7.50801 9.46777 9.14844 7.82734 9.14844 5.80371C9.14844 3.78011 7.50801 2.13965 5.48438 2.13965C3.46077 2.13965 1.82031 3.78011 1.82031 5.80371C1.82031 7.82734 3.46077 9.46777 5.48438 9.46777Z" stroke="#7C70C3" stroke-width="0.5" stroke-linecap="round" stroke-linejoin="round"/>
<path d="M6.44179 5.0227C6.40879 4.94996 6.35788 4.88381 6.29318 4.82748C6.15555 4.70766 5.95556 4.63226 5.73296 4.63226H5.15119C4.78066 4.63226 4.48029 4.86632 4.48029 5.15504C4.48029 5.40072 4.69982 5.61325 5.00782 5.66575L5.89357 5.81673C6.23862 5.87555 6.48456 6.11381 6.48456 6.38904C6.48456 6.71249 6.14805 6.97492 5.73296 6.97492H5.23189C4.90463 6.97492 4.62623 6.81194 4.52305 6.58448" stroke="#7C70C3" stroke-width="0.5" stroke-linecap="round" stroke-linejoin="round"/>
<path d="M5.47998 4.63223V4.04657" stroke="#7C70C3" stroke-width="0.5" stroke-linecap="round" stroke-linejoin="round"/>
<path d="M5.47998 7.56081V6.97516" stroke="#7C70C3" stroke-width="0.5" stroke-linecap="round" stroke-linejoin="round"/>
</g>
<defs>
<clipPath id="clip0_302_256">
<rect width="9" height="10" fill="white" transform="translate(0.984375 0.670898)"/>
</clipPath>
</defs>
</svg>
