<svg width="22" height="20" viewBox="0 0 22 20" fill="none" xmlns="http://www.w3.org/2000/svg">
<path fill-rule="evenodd" clip-rule="evenodd" d="M11.2268 0C5.47109 0 0.818176 4.58331 0.818176 10.2535C0.818176 14.786 3.79946 18.6226 7.93529 19.9805C8.45237 20.0826 8.64178 19.7599 8.64178 19.4885C8.64178 19.2508 8.62474 18.436 8.62474 17.587C5.72931 18.1983 5.12637 16.3647 5.12637 16.3647C4.66106 15.1764 3.97161 14.871 3.97161 14.871C3.02394 14.2429 4.04064 14.2429 4.04064 14.2429C5.09185 14.3108 5.64345 15.2954 5.64345 15.2954C6.57387 16.857 8.07314 16.4158 8.6763 16.1441C8.76237 15.482 9.03828 15.0237 9.33123 14.7691C7.02192 14.5314 4.59224 13.6487 4.59224 9.71017C4.59224 8.58976 5.00557 7.67309 5.6605 6.96018C5.55717 6.7056 5.19519 5.65289 5.76404 4.24394C5.76404 4.24394 6.6429 3.97228 8.62452 5.29644C9.47293 5.07199 10.3479 4.95782 11.2268 4.95685C12.1056 4.95685 13.0015 5.07581 13.8288 5.29644C15.8107 3.97228 16.6895 4.24394 16.6895 4.24394C17.2584 5.65289 16.8962 6.7056 16.7929 6.96018C17.465 7.67309 17.8613 8.58976 17.8613 9.71017C17.8613 13.6487 15.4316 14.5143 13.1051 14.7691C13.4843 15.0916 13.8116 15.7026 13.8116 16.6703C13.8116 18.0453 13.7945 19.1489 13.7945 19.4883C13.7945 19.7599 13.9841 20.0826 14.501 19.9808C18.6368 18.6224 21.6181 14.786 21.6181 10.2535C21.6352 4.58331 16.9652 0 11.2268 0Z" fill="#72728F"/>
</svg>
