<svg width="33" height="33" viewBox="0 0 33 33" fill="none" xmlns="http://www.w3.org/2000/svg">
<g clip-path="url(#clip0_20_1151)">
<path d="M30.5572 0H2.43633C1.08926 0 0 1.06348 0 2.37832V30.6152C0 31.9301 1.08926 33 2.43633 33H30.5572C31.9043 33 33 31.9301 33 30.6217V2.37832C33 1.06348 31.9043 0 30.5572 0ZM9.79043 28.1209H4.89199V12.3686H9.79043V28.1209ZM7.34121 10.2223C5.76856 10.2223 4.49883 8.95254 4.49883 7.38633C4.49883 5.82012 5.76856 4.55039 7.34121 4.55039C8.90742 4.55039 10.1771 5.82012 10.1771 7.38633C10.1771 8.94609 8.90742 10.2223 7.34121 10.2223ZM28.1209 28.1209H23.2289V20.4639C23.2289 18.6398 23.1967 16.2873 20.683 16.2873C18.1371 16.2873 17.7504 18.2789 17.7504 20.335V28.1209H12.8648V12.3686H17.557V14.5213H17.6215C18.2725 13.2838 19.8709 11.9754 22.2492 11.9754C27.2057 11.9754 28.1209 15.2367 28.1209 19.4777V28.1209Z" fill="#2C202A"/>
</g>
<defs>
<clipPath id="clip0_20_1151">
<rect width="33" height="33" fill="white"/>
</clipPath>
</defs>
</svg>
