<svg width="48" height="48" viewBox="0 0 48 48" fill="none" xmlns="http://www.w3.org/2000/svg">
<rect width="16" height="16" transform="translate(16 16)" fill="white" fill-opacity="0.01" style="mix-blend-mode:multiply"/>
<path d="M30.5 29.793L26.7239 26.0169C27.6313 24.9276 28.0838 23.5304 27.9872 22.116C27.8907 20.7015 27.2525 19.3788 26.2055 18.4229C25.1586 17.467 23.7833 16.9515 22.366 16.9837C20.9487 17.0159 19.5983 17.5933 18.5958 18.5958C17.5933 19.5983 17.0159 20.9487 16.9837 22.366C16.9515 23.7834 17.467 25.1586 18.4229 26.2055C19.3788 27.2525 20.7015 27.8907 22.116 27.9872C23.5304 28.0838 24.9276 27.6313 26.0169 26.724L29.7929 30.5L30.5 29.793ZM18 22.5C18 21.61 18.2639 20.74 18.7584 19.9999C19.2528 19.2599 19.9557 18.6831 20.7779 18.3426C21.6002 18.002 22.505 17.9128 23.3779 18.0865C24.2508 18.2601 25.0526 18.6887 25.682 19.318C26.3113 19.9474 26.7399 20.7492 26.9135 21.6221C27.0872 22.495 26.998 23.3998 26.6575 24.2221C26.3169 25.0444 25.7401 25.7472 25.0001 26.2416C24.26 26.7361 23.39 27 22.5 27C21.3069 26.9987 20.1631 26.5242 19.3195 25.6805C18.4759 24.8369 18.0013 23.6931 18 22.5Z" fill="rgba(124, 112, 195, 1)"/>
</svg>
