<svg width="21" height="20" viewBox="0 0 21 20" fill="none" xmlns="http://www.w3.org/2000/svg">
<g clip-path="url(#clip0_302_145)">
<path fill-rule="evenodd" clip-rule="evenodd" d="M20.8182 10C20.8182 15.5228 16.341 20 10.8182 20C5.29534 20 0.818184 15.5228 0.818184 10C0.818184 4.47715 5.29534 0 10.8182 0C16.341 0 20.8182 4.47715 20.8182 10ZM11.1765 7.38244C10.2039 7.787 8.25996 8.62433 5.34476 9.89443C4.87138 10.0827 4.6234 10.2668 4.60082 10.4469C4.56267 10.7512 4.94378 10.8711 5.46274 11.0343C5.53333 11.0565 5.60648 11.0795 5.68147 11.1038C6.19205 11.2698 6.87887 11.464 7.23592 11.4717C7.5598 11.4787 7.92129 11.3452 8.32038 11.0711C11.0441 9.2325 12.4502 8.30317 12.5384 8.28314C12.6007 8.26901 12.687 8.25123 12.7455 8.3032C12.804 8.35518 12.7982 8.4536 12.792 8.48C12.7543 8.64095 11.2583 10.0317 10.4841 10.7515C10.2428 10.9759 10.0716 11.135 10.0366 11.1714C9.95819 11.2528 9.87829 11.3298 9.8015 11.4038C9.32716 11.8611 8.97144 12.204 9.82119 12.764C10.2296 13.0331 10.5563 13.2556 10.8823 13.4776C11.2383 13.7201 11.5934 13.9619 12.0529 14.2631C12.1699 14.3398 12.2817 14.4195 12.3906 14.4971C12.8049 14.7925 13.1771 15.0578 13.637 15.0155C13.9042 14.9909 14.1802 14.7397 14.3204 13.9903C14.6517 12.2193 15.3029 8.38205 15.4534 6.80081C15.4666 6.66227 15.45 6.48498 15.4366 6.40715C15.4233 6.32931 15.3955 6.21842 15.2943 6.13633C15.1745 6.03911 14.9895 6.01861 14.9068 6.02007C14.5307 6.0267 13.9536 6.22735 11.1765 7.38244Z" fill="#72728F"/>
</g>
<defs>
<clipPath id="clip0_302_145">
<rect width="20" height="20" fill="white" transform="translate(0.818184)"/>
</clipPath>
</defs>
</svg>
