<svg width="8" height="9" viewBox="0 0 8 9" fill="none" xmlns="http://www.w3.org/2000/svg">
<path d="M6.35469 3.88135H1.19219C0.835794 3.88135 0.546875 4.14063 0.546875 4.46047V7.93523C0.546875 8.25509 0.835794 8.51436 1.19219 8.51436H6.35469C6.71109 8.51436 7 8.25509 7 7.93523V4.46047C7 4.14063 6.71109 3.88135 6.35469 3.88135Z" stroke="#7C70C3" stroke-width="0.5" stroke-linecap="round" stroke-linejoin="round"/>
<path d="M6.03037 3.88129V3.0126C6.03037 2.47502 5.79244 1.95946 5.36884 1.57934C4.94528 1.19921 4.37079 0.985657 3.77178 0.985657C3.17276 0.985657 2.59828 1.19921 2.17471 1.57934C1.75114 1.95946 1.51318 2.47502 1.51318 3.0126V3.88129" stroke="#7C70C3" stroke-width="0.5" stroke-linecap="round" stroke-linejoin="round"/>
<path d="M3.77261 6.48757C3.9508 6.48757 4.09526 6.35793 4.09526 6.19801C4.09526 6.03809 3.9508 5.90845 3.77261 5.90845C3.59441 5.90845 3.44995 6.03809 3.44995 6.19801C3.44995 6.35793 3.59441 6.48757 3.77261 6.48757Z" fill="#7C70C3" stroke="#7C70C3" stroke-width="0.5" stroke-linecap="round" stroke-linejoin="round"/>
</svg>
