<svg width="10" height="11" viewBox="0 0 10 11" fill="none" xmlns="http://www.w3.org/2000/svg">
<path d="M5.00003 8.86114C6.99442 8.86114 8.61114 7.24442 8.61114 5.25003C8.61114 3.25567 6.99442 1.63892 5.00003 1.63892C3.00567 1.63892 1.38892 3.25567 1.38892 5.25003C1.38892 7.24442 3.00567 8.86114 5.00003 8.86114Z" stroke="#7C70C3" stroke-width="0.5" stroke-linecap="round" stroke-linejoin="round"/>
<path d="M5.94359 4.26274C5.91108 4.17074 5.8609 4.08708 5.79713 4.01583C5.66149 3.86429 5.46439 3.76892 5.245 3.76892H4.67165C4.30647 3.76892 4.01044 4.06495 4.01044 4.43013C4.01044 4.74085 4.2268 5.00966 4.53035 5.07607L5.4033 5.26702C5.74336 5.34141 5.98574 5.64277 5.98574 5.99087C5.98574 6.39997 5.6541 6.73188 5.245 6.73188H4.75118C4.42865 6.73188 4.15428 6.52575 4.05259 6.23805" stroke="#7C70C3" stroke-width="0.5" stroke-linecap="round" stroke-linejoin="round"/>
<path d="M5 3.76857V3.02783" stroke="#7C70C3" stroke-width="0.5" stroke-linecap="round" stroke-linejoin="round"/>
<path d="M5 7.47217V6.73145" stroke="#7C70C3" stroke-width="0.5" stroke-linecap="round" stroke-linejoin="round"/>
</svg>
