<svg width="14" height="15" viewBox="0 0 14 15" fill="none" xmlns="http://www.w3.org/2000/svg">
<g clip-path="url(#clip0_827_134)">
<path d="M12.7175 5.22624V7.2493C12.7175 7.76213 12.3018 8.17787 11.7889 8.17787H1.57463C1.06179 8.17787 0.646057 7.76213 0.646057 7.2493V3.53502C0.646057 3.02219 1.06179 2.60645 1.57463 2.60645H6.82143" stroke="#250054" stroke-linecap="round" stroke-linejoin="round"/>
<path d="M3.43175 5.85631C3.68817 5.85631 3.89604 5.64844 3.89604 5.39202C3.89604 5.1356 3.68817 4.92773 3.43175 4.92773C3.17534 4.92773 2.96747 5.1356 2.96747 5.39202C2.96747 5.64844 3.17534 5.85631 3.43175 5.85631Z" stroke="#250054" stroke-linecap="round" stroke-linejoin="round"/>
<path d="M1.57463 8.17773C1.32835 8.17773 1.09217 8.27557 0.918029 8.4497C0.743889 8.62385 0.646057 8.86003 0.646057 9.10631V12.8206C0.646057 13.0668 0.743889 13.3031 0.918029 13.4772C1.09217 13.6513 1.32835 13.7492 1.57463 13.7492H11.7889C12.0352 13.7492 12.2714 13.6513 12.4455 13.4772C12.6196 13.3031 12.7175 13.0668 12.7175 12.8206V9.10631C12.7175 8.86003 12.6196 8.62385 12.4455 8.4497C12.2714 8.27557 12.0352 8.17773 11.7889 8.17773" stroke="#250054" stroke-linecap="round" stroke-linejoin="round"/>
<path d="M3.43175 11.4281C3.68817 11.4281 3.89604 11.2202 3.89604 10.9638C3.89604 10.7074 3.68817 10.4995 3.43175 10.4995C3.17534 10.4995 2.96747 10.7074 2.96747 10.9638C2.96747 11.2202 3.17534 11.4281 3.43175 11.4281Z" stroke="#250054" stroke-linecap="round" stroke-linejoin="round"/>
<path d="M7.14606 10.9634H10.3961" stroke="#250054" stroke-linecap="round" stroke-linejoin="round"/>
<path d="M7.36865 4.74721L9.2258 6.14006L12.4758 2.42578" stroke="#250054" stroke-linecap="round" stroke-linejoin="round"/>
</g>
<defs>
<clipPath id="clip0_827_134">
<rect width="13" height="13.9286" fill="white" transform="translate(0.181763 0.749512)"/>
</clipPath>
</defs>
</svg>
