<svg width="14" height="14" viewBox="0 0 14 14" fill="none" xmlns="http://www.w3.org/2000/svg">
<path d="M12.7175 4.22624V6.2493C12.7175 6.76213 12.3018 7.17787 11.7889 7.17787H1.57463C1.06179 7.17787 0.646057 6.76213 0.646057 6.2493V2.53502C0.646057 2.02219 1.06179 1.60645 1.57463 1.60645H6.82143" stroke="#250054" stroke-linecap="round" stroke-linejoin="round"/>
<path d="M3.43175 4.85631C3.68817 4.85631 3.89604 4.64844 3.89604 4.39202C3.89604 4.1356 3.68817 3.92773 3.43175 3.92773C3.17534 3.92773 2.96747 4.1356 2.96747 4.39202C2.96747 4.64844 3.17534 4.85631 3.43175 4.85631Z" stroke="#250054" stroke-linecap="round" stroke-linejoin="round"/>
<path d="M1.57463 7.17773C1.32835 7.17773 1.09217 7.27557 0.918029 7.4497C0.743889 7.62385 0.646057 7.86003 0.646057 8.10631V11.8206C0.646057 12.0668 0.743889 12.3031 0.918029 12.4772C1.09217 12.6513 1.32835 12.7492 1.57463 12.7492H11.7889C12.0352 12.7492 12.2714 12.6513 12.4455 12.4772C12.6196 12.3031 12.7175 12.0668 12.7175 11.8206V8.10631C12.7175 7.86003 12.6196 7.62385 12.4455 7.4497C12.2714 7.27557 12.0352 7.17773 11.7889 7.17773" stroke="#250054" stroke-linecap="round" stroke-linejoin="round"/>
<path d="M3.43175 10.4281C3.68817 10.4281 3.89604 10.2202 3.89604 9.9638C3.89604 9.70738 3.68817 9.49951 3.43175 9.49951C3.17534 9.49951 2.96747 9.70738 2.96747 9.9638C2.96747 10.2202 3.17534 10.4281 3.43175 10.4281Z" stroke="#250054" stroke-linecap="round" stroke-linejoin="round"/>
<path d="M7.14606 9.96338H10.3961" stroke="#250054" stroke-linecap="round" stroke-linejoin="round"/>
<path d="M7.36865 3.74721L9.2258 5.14006L12.4758 1.42578" stroke="#250054" stroke-linecap="round" stroke-linejoin="round"/>
</svg>
