<svg width="20" height="20" viewBox="0 0 20 20" fill="none" xmlns="http://www.w3.org/2000/svg">
<rect width="20" height="20" rx="10" fill="none"/>
<path d="M16.0714 6.80045V8.82351C16.0714 9.33634 15.6557 9.75208 15.1428 9.75208H4.92857C4.41573 9.75208 4 9.33634 4 8.82351V5.10923C4 4.5964 4.41573 4.18066 4.92857 4.18066H10.1754" stroke="#250054" stroke-linecap="round" stroke-linejoin="round"/>
<path d="M6.78569 7.43053C7.04211 7.43053 7.24998 7.22266 7.24998 6.96624C7.24998 6.70982 7.04211 6.50195 6.78569 6.50195C6.52928 6.50195 6.32141 6.70982 6.32141 6.96624C6.32141 7.22266 6.52928 7.43053 6.78569 7.43053Z" stroke="#250054" stroke-linecap="round" stroke-linejoin="round"/>
<path d="M4.92857 9.75195C4.68229 9.75195 4.44611 9.84979 4.27197 10.0239C4.09783 10.1981 4 10.4343 4 10.6805V14.3948C4 14.641 4.09783 14.8773 4.27197 15.0514C4.44611 15.2255 4.68229 15.3234 4.92857 15.3234H15.1428C15.3891 15.3234 15.6253 15.2255 15.7994 15.0514C15.9735 14.8773 16.0714 14.641 16.0714 14.3948V10.6805C16.0714 10.4343 15.9735 10.1981 15.7994 10.0239C15.6253 9.84979 15.3891 9.75195 15.1428 9.75195" stroke="#250054" stroke-linecap="round" stroke-linejoin="round"/>
<path d="M6.78569 13.0018C7.04211 13.0018 7.24998 12.7939 7.24998 12.5375C7.24998 12.2811 7.04211 12.0732 6.78569 12.0732C6.52928 12.0732 6.32141 12.2811 6.32141 12.5375C6.32141 12.7939 6.52928 13.0018 6.78569 13.0018Z" stroke="#250054" stroke-linecap="round" stroke-linejoin="round"/>
<path d="M10.5 12.5381H13.75" stroke="#250054" stroke-linecap="round" stroke-linejoin="round"/>
<path d="M10.7226 6.32143L12.5797 7.71428L15.8297 4" stroke="#250054" stroke-linecap="round" stroke-linejoin="round"/>
</svg>
