<svg width="34" height="33" viewBox="0 0 34 33" fill="none" xmlns="http://www.w3.org/2000/svg">
<path fill-rule="evenodd" clip-rule="evenodd" d="M17.3342 0.634521C8.20259 0.634521 0.820557 7.90613 0.820557 16.9021C0.820557 24.093 5.55048 30.18 12.1121 32.3344C12.9325 32.4964 13.233 31.9844 13.233 31.5537C13.233 31.1766 13.206 29.8839 13.206 28.537C8.61227 29.5068 7.65567 26.5978 7.65567 26.5978C6.91743 24.7125 5.8236 24.2279 5.8236 24.2279C4.32008 23.2314 5.93312 23.2314 5.93312 23.2314C7.60091 23.3391 8.47604 24.9012 8.47604 24.9012C9.95218 27.3788 12.3308 26.6788 13.2878 26.2478C13.4243 25.1973 13.8621 24.4702 14.3268 24.0663C10.663 23.6891 6.80825 22.2887 6.80825 16.0401C6.80825 14.2625 7.46401 12.8082 8.50309 11.6771C8.33915 11.2732 7.76485 9.60305 8.66736 7.3677C8.66736 7.3677 10.0617 6.93669 13.2056 9.03752C14.5517 8.68143 15.9398 8.50029 17.3342 8.49876C18.7285 8.49876 20.1499 8.68749 21.4625 9.03752C24.6067 6.93669 26.0011 7.3677 26.0011 7.3677C26.9036 9.60305 26.3289 11.2732 26.165 11.6771C27.2314 12.8082 27.8602 14.2625 27.8602 16.0401C27.8602 22.2887 24.0054 23.662 20.3142 24.0663C20.9159 24.5779 21.4351 25.5474 21.4351 27.0827C21.4351 29.2642 21.408 31.015 21.408 31.5534C21.408 31.9844 21.7089 32.4964 22.5289 32.3348C29.0906 30.1797 33.8205 24.093 33.8205 16.9021C33.8475 7.90613 26.4385 0.634521 17.3342 0.634521Z" fill="#2C202A"/>
</svg>
