<svg width="34" height="21" viewBox="0 0 34 21" fill="none" xmlns="http://www.w3.org/2000/svg">
<path d="M1.18473 19.9289H5.18042C5.32152 19.9289 5.43854 19.793 5.43854 19.6266V1.086C5.43854 0.919547 5.32152 0.783669 5.18042 0.783669H1.18473C1.04362 0.783669 0.926605 0.919547 0.926605 1.086V19.6266C0.926605 19.793 1.04362 19.9289 1.18473 19.9289Z" fill="#211820"/>
<path d="M29.1113 19.9289H33.107C33.2481 19.9289 33.3651 19.793 33.3651 19.6266V1.086C33.3651 0.919547 33.2481 0.783669 33.107 0.783669H29.1113C28.9702 0.783669 28.8532 0.919547 28.8532 1.086V19.6266C28.8532 19.793 28.9702 19.9289 29.1113 19.9289Z" fill="#211820"/>
<path d="M15.4608 4.81696C15.2023 3.55771 14.9473 2.30867 14.6889 1.04601C15.369 0.875841 16.032 0.787353 16.7053 0.783949C19.2555 0.766933 21.5541 1.52248 23.4855 3.20376C25.1959 4.69444 26.2126 6.60374 26.5424 8.85678C26.8484 10.9499 26.5526 12.9545 25.5563 14.8263C24.118 17.5218 21.8942 19.2099 18.9053 19.8395C16.8413 20.2751 14.8283 20.0369 12.9241 19.1282C10.5439 17.9915 8.81657 16.2047 7.95629 13.6964C6.74578 10.1603 9.07839 6.30764 12.7677 5.68482C14.6345 5.36831 16.3313 5.77671 17.773 7.03597C18.9257 8.04337 19.7214 9.27539 20.0104 10.8069C20.1124 11.3583 20.1226 11.9096 20.0682 12.4678C20.0546 12.6141 19.9798 12.6447 19.854 12.6584C18.7625 12.7775 17.6744 12.9 16.5829 13.0225C16.3381 13.0497 16.0966 13.077 15.8484 13.1042C15.9402 12.8387 16.049 12.5971 16.1034 12.3452C16.3313 11.3378 15.8722 10.4087 14.9303 9.85737C13.9136 9.26518 12.9445 9.55447 12.3223 10.1194C11.5708 10.8035 11.377 11.8722 11.8156 12.7945C12.8323 14.9216 14.9609 16.1945 17.3173 16.0788C19.9186 15.9528 22.19 13.9516 22.6184 11.3821C22.9347 9.4796 22.4416 7.80513 21.1257 6.39273C20.296 5.50104 19.3099 4.86461 18.079 4.67742C17.2459 4.5515 16.4265 4.62297 15.607 4.79314C15.5628 4.80335 15.5186 4.80675 15.4608 4.81696Z" fill="#211820"/>
</svg>
