<svg width="85" height="8" viewBox="0 0 85 8" fill="none" xmlns="http://www.w3.org/2000/svg">
<path d="M4.69347 4.82451C4.34147 4.82451 4.05347 4.77251 3.82947 4.66851C3.60547 4.55651 3.42947 4.42051 3.30147 4.26051C3.17347 4.09251 3.08147 3.92851 3.02547 3.76851C2.97747 3.60851 2.94547 3.47251 2.92947 3.36051C2.91347 3.24851 2.90547 3.18851 2.90547 3.18051H3.32547C3.32547 3.18851 3.33347 3.25251 3.34947 3.37251C3.37347 3.49251 3.42547 3.62851 3.50547 3.78051C3.59347 3.93251 3.72947 4.06451 3.91347 4.17651C4.09747 4.28851 4.35747 4.34451 4.69347 4.34451V4.82451ZM0.805468 4.82451V4.34451H4.69347V4.82451H0.805468ZM2.90547 5.98851C2.90547 5.98851 2.91347 5.93251 2.92947 5.82051C2.94547 5.70851 2.97747 5.57251 3.02547 5.41251C3.08147 5.24451 3.17347 5.08051 3.30147 4.92051C3.42947 4.76051 3.60547 4.62451 3.82947 4.51251C4.05347 4.40051 4.34147 4.34451 4.69347 4.34451V4.82451C4.35747 4.82451 4.09747 4.88051 3.91347 4.99251C3.72947 5.10451 3.59347 5.23651 3.50547 5.38851C3.42547 5.54051 3.37347 5.67651 3.34947 5.79651C3.33347 5.90851 3.32547 5.97251 3.32547 5.98851H2.90547ZM8.91325 7.29651L8.51725 7.00851L11.0972 3.76851L13.3772 0.552508L13.7612 0.828508L11.3132 3.92451L8.91325 7.29651ZM13.0172 7.41651C12.6252 7.41651 12.3372 7.28451 12.1532 7.02051C11.9692 6.74851 11.8772 6.38851 11.8772 5.94051C11.8772 5.49251 11.9652 5.13651 12.1412 4.87251C12.3252 4.60051 12.6172 4.46451 13.0172 4.46451C13.4252 4.46451 13.7172 4.60051 13.8932 4.87251C14.0772 5.13651 14.1692 5.49251 14.1692 5.94051C14.1692 6.37251 14.0772 6.72851 13.8932 7.00851C13.7172 7.28051 13.4252 7.41651 13.0172 7.41651ZM13.0172 7.05651C13.2972 7.05651 13.4932 6.95251 13.6052 6.74451C13.7172 6.52851 13.7732 6.26451 13.7732 5.95251C13.7732 5.61651 13.7172 5.34851 13.6052 5.14851C13.4932 4.94051 13.2972 4.83651 13.0172 4.83651C12.7452 4.83651 12.5492 4.93651 12.4292 5.13651C12.3172 5.33651 12.2612 5.60851 12.2612 5.95251C12.2612 6.26451 12.3172 6.52851 12.4292 6.74451C12.5492 6.95251 12.7452 7.05651 13.0172 7.05651ZM9.32125 3.37251C8.92125 3.37251 8.62925 3.24051 8.44525 2.97651C8.26125 2.70451 8.16925 2.34451 8.16925 1.89651C8.16925 1.45651 8.25725 1.10051 8.43325 0.828508C8.61725 0.556509 8.90925 0.420509 9.30925 0.420509C9.71725 0.420509 10.0092 0.556509 10.1852 0.828508C10.3692 1.10051 10.4612 1.45651 10.4612 1.89651C10.4612 2.32851 10.3692 2.68451 10.1852 2.96451C10.0092 3.23651 9.72125 3.37251 9.32125 3.37251ZM9.30925 3.00051C9.58925 3.00051 9.78525 2.89651 9.89725 2.68851C10.0092 2.48051 10.0652 2.21651 10.0652 1.89651C10.0652 1.56851 10.0092 1.30051 9.89725 1.09251C9.78525 0.884508 9.58925 0.780508 9.30925 0.780508C9.04525 0.780508 8.85325 0.880508 8.73325 1.08051C8.61325 1.28051 8.55325 1.55651 8.55325 1.90851C8.55325 2.22051 8.61325 2.48051 8.73325 2.68851C8.85325 2.89651 9.04525 3.00051 9.30925 3.00051ZM17.6327 6.80451V7.29651H15.0887V6.80451H16.1327V1.53651C16.0447 1.76051 15.9287 1.94051 15.7847 2.07651C15.6407 2.21251 15.4927 2.31651 15.3407 2.38851C15.1887 2.45251 15.0487 2.49651 14.9207 2.52051C14.8007 2.53651 14.7207 2.54451 14.6807 2.54451V1.99251C14.7287 1.99251 14.8287 1.97251 14.9807 1.93251C15.1327 1.89251 15.3007 1.82051 15.4847 1.71651C15.6687 1.61251 15.8247 1.46851 15.9527 1.28451C16.0887 1.09251 16.1607 0.844508 16.1687 0.540509H16.6487V6.80451H17.6327ZM19.4643 7.29651C19.4643 6.36851 19.5843 5.53251 19.8243 4.78851C20.0643 4.03651 20.4043 3.35251 20.8443 2.73651C21.2923 2.12051 21.8163 1.54851 22.4163 1.02051H18.3963V0.540509H22.9923V0.996508C22.8083 1.15651 22.5883 1.36051 22.3323 1.60851C22.0763 1.84851 21.8123 2.14051 21.5403 2.48451C21.2683 2.82851 21.0163 3.23251 20.7843 3.69651C20.5523 4.16051 20.3643 4.68851 20.2203 5.28051C20.0843 5.87251 20.0163 6.54451 20.0163 7.29651H19.4643ZM24.1327 7.29651C23.9807 7.29651 23.8767 7.25251 23.8207 7.16451C23.7647 7.07651 23.7367 6.97251 23.7367 6.85251C23.7367 6.73251 23.7647 6.62851 23.8207 6.54051C23.8767 6.44451 23.9807 6.39651 24.1327 6.39651C24.2847 6.39651 24.3887 6.44451 24.4447 6.54051C24.5007 6.62851 24.5287 6.73251 24.5287 6.85251C24.5287 6.97251 24.5007 7.07651 24.4447 7.16451C24.3887 7.25251 24.2847 7.29651 24.1327 7.29651ZM27.9757 7.41651C27.5677 7.41651 27.1717 7.33251 26.7877 7.16451C26.4037 6.99651 26.0837 6.74851 25.8277 6.42051C25.5797 6.08451 25.4517 5.66451 25.4437 5.16051L25.9597 5.12451C25.9837 5.54051 26.0957 5.88051 26.2957 6.14451C26.5037 6.40851 26.7557 6.60451 27.0517 6.73251C27.3557 6.86051 27.6677 6.92451 27.9877 6.92451C28.3397 6.92451 28.6597 6.86451 28.9477 6.74451C29.2437 6.62451 29.4797 6.45251 29.6557 6.22851C29.8317 5.99651 29.9197 5.72451 29.9197 5.41251C29.9197 5.13251 29.8637 4.90051 29.7517 4.71651C29.6397 4.52451 29.4997 4.37651 29.3317 4.27251C29.1637 4.16051 28.9917 4.08451 28.8157 4.04451C28.6477 4.00451 28.5077 3.98451 28.3957 3.98451H27.3517V3.64851H28.4077C28.6877 3.64851 28.9277 3.60051 29.1277 3.50451C29.3277 3.40051 29.4797 3.25651 29.5837 3.07251C29.6877 2.88851 29.7397 2.68051 29.7397 2.44851C29.7397 1.96051 29.5757 1.58051 29.2477 1.30851C28.9277 1.02851 28.4917 0.888508 27.9397 0.888508C27.6037 0.888508 27.3197 0.944508 27.0877 1.05651C26.8557 1.16851 26.6677 1.30851 26.5237 1.47651C26.3797 1.64451 26.2717 1.81651 26.1997 1.99251C26.1357 2.16851 26.0957 2.32451 26.0797 2.46051L25.5877 2.41251C25.5957 2.30851 25.6237 2.17651 25.6717 2.01651C25.7197 1.84851 25.7997 1.67651 25.9117 1.50051C26.0237 1.31651 26.1677 1.14451 26.3437 0.984509C26.5197 0.816508 26.7397 0.680508 27.0037 0.576509C27.2677 0.472509 27.5797 0.420509 27.9397 0.420509C28.6357 0.420509 29.1957 0.596509 29.6197 0.948508C30.0437 1.29251 30.2557 1.76851 30.2557 2.37651C30.2557 2.76851 30.1517 3.08051 29.9437 3.31251C29.7357 3.54451 29.4637 3.71251 29.1277 3.81651C29.4797 3.91251 29.7837 4.10451 30.0397 4.39251C30.3037 4.67251 30.4357 5.03251 30.4357 5.47251C30.4357 5.85651 30.3277 6.19651 30.1117 6.49251C29.8957 6.78851 29.6037 7.01651 29.2357 7.17651C28.8677 7.33651 28.4477 7.41651 27.9757 7.41651Z" fill="#13A719"/>
<path d="M37.511 2.42451H38.063V2.58051L36.143 7.29651H35.351L33.431 2.59251V2.42451H33.971L35.747 6.85251H35.771L37.511 2.42451ZM40.5297 7.41651C40.2017 7.41651 39.9217 7.37251 39.6897 7.28451C39.4577 7.18851 39.2657 7.06851 39.1137 6.92451C38.9617 6.78051 38.8417 6.63251 38.7537 6.48051C38.6657 6.32851 38.6017 6.18851 38.5617 6.06051C38.5297 5.93251 38.5137 5.83651 38.5137 5.77251H39.0537C39.0537 5.78051 39.0617 5.84851 39.0777 5.97651C39.1017 6.09651 39.1577 6.23651 39.2457 6.39651C39.3417 6.55651 39.4897 6.69651 39.6897 6.81651C39.8897 6.92851 40.1697 6.98451 40.5297 6.98451C40.7937 6.98451 41.0337 6.95651 41.2497 6.90051C41.4657 6.83651 41.6377 6.74051 41.7657 6.61251C41.8937 6.47651 41.9577 6.30051 41.9577 6.08451C41.9577 5.82851 41.8737 5.63251 41.7057 5.49651C41.5457 5.35251 41.3377 5.24851 41.0817 5.18451C40.8257 5.11251 40.5577 5.04851 40.2777 4.99251C39.9977 4.92851 39.7297 4.84851 39.4737 4.75251C39.2257 4.65651 39.0217 4.51651 38.8617 4.33251C38.7097 4.14851 38.6337 3.89651 38.6337 3.57651C38.6417 3.19251 38.8217 2.88451 39.1737 2.65251C39.5257 2.41251 39.9777 2.29251 40.5297 2.29251C40.7377 2.29251 40.9577 2.31651 41.1897 2.36451C41.4217 2.41251 41.6337 2.49651 41.8257 2.61651C42.0257 2.73651 42.1857 2.90051 42.3057 3.10851C42.4337 3.31651 42.4857 3.58851 42.4617 3.92451H41.9337C41.9417 3.67651 41.8977 3.47651 41.8017 3.32451C41.7137 3.17251 41.5897 3.05651 41.4297 2.97651C41.2777 2.88851 41.1177 2.83251 40.9497 2.80851C40.7817 2.78451 40.6297 2.77251 40.4937 2.77251C40.1177 2.77251 39.7977 2.84051 39.5337 2.97651C39.2777 3.11251 39.1497 3.32051 39.1497 3.60051C39.1497 3.83251 39.2297 4.01251 39.3897 4.14051C39.5497 4.26851 39.7577 4.36851 40.0137 4.44051C40.2697 4.50451 40.5377 4.56451 40.8177 4.62051C41.0977 4.67651 41.3657 4.75651 41.6217 4.86051C41.8777 4.96451 42.0857 5.11251 42.2457 5.30451C42.4057 5.49651 42.4857 5.76451 42.4857 6.10851C42.4857 6.42051 42.3977 6.67251 42.2217 6.86451C42.0537 7.05651 41.8217 7.19651 41.5257 7.28451C41.2297 7.37251 40.8977 7.41651 40.5297 7.41651ZM46.2366 7.29651V0.540509H46.7886V7.29651H46.2366ZM49.5048 7.40451C49.0568 7.40451 48.6848 7.29251 48.3888 7.06851C48.0928 6.84451 47.8728 6.54451 47.7288 6.16851C47.5848 5.78451 47.5128 5.36051 47.5128 4.89651C47.5128 4.40851 47.5848 3.97651 47.7288 3.60051C47.8808 3.22451 48.1048 2.92851 48.4008 2.71251C48.7048 2.48851 49.0728 2.37651 49.5048 2.37651C49.7448 2.37651 49.9568 2.40851 50.1408 2.47251C50.3248 2.53651 50.4888 2.62051 50.6328 2.72451C50.7768 2.82851 50.8968 2.94851 50.9928 3.08451C51.0968 3.21251 51.1768 3.35251 51.2328 3.50451H51.2448V2.42451H51.8088V7.29651H51.3528L51.2568 6.28851H51.2328C51.1688 6.43251 51.0848 6.57251 50.9808 6.70851C50.8848 6.83651 50.7648 6.95651 50.6208 7.06851C50.4768 7.17251 50.3128 7.25251 50.1288 7.30851C49.9448 7.37251 49.7368 7.40451 49.5048 7.40451ZM49.7088 6.90051C50.0528 6.90051 50.3368 6.82051 50.5608 6.66051C50.7928 6.50051 50.9648 6.27251 51.0768 5.97651C51.1888 5.67251 51.2448 5.31651 51.2448 4.90851C51.2448 4.46051 51.1848 4.09251 51.0648 3.80451C50.9448 3.50851 50.7688 3.28451 50.5368 3.13251C50.3128 2.98051 50.0368 2.90451 49.7088 2.90451C49.3328 2.90451 49.0208 2.99251 48.7728 3.16851C48.5328 3.34451 48.3528 3.58051 48.2328 3.87651C48.1208 4.17251 48.0648 4.51251 48.0648 4.89651C48.0648 5.28851 48.1248 5.63651 48.2448 5.94051C48.3648 6.24451 48.5448 6.48051 48.7848 6.64851C49.0328 6.81651 49.3408 6.90051 49.7088 6.90051ZM54.5458 7.41651C54.2178 7.41651 53.9378 7.37251 53.7058 7.28451C53.4738 7.18851 53.2818 7.06851 53.1298 6.92451C52.9778 6.78051 52.8578 6.63251 52.7698 6.48051C52.6818 6.32851 52.6178 6.18851 52.5778 6.06051C52.5458 5.93251 52.5298 5.83651 52.5298 5.77251H53.0698C53.0698 5.78051 53.0778 5.84851 53.0938 5.97651C53.1178 6.09651 53.1738 6.23651 53.2618 6.39651C53.3578 6.55651 53.5058 6.69651 53.7058 6.81651C53.9058 6.92851 54.1858 6.98451 54.5458 6.98451C54.8098 6.98451 55.0498 6.95651 55.2658 6.90051C55.4818 6.83651 55.6538 6.74051 55.7818 6.61251C55.9098 6.47651 55.9738 6.30051 55.9738 6.08451C55.9738 5.82851 55.8898 5.63251 55.7218 5.49651C55.5618 5.35251 55.3538 5.24851 55.0978 5.18451C54.8418 5.11251 54.5738 5.04851 54.2938 4.99251C54.0138 4.92851 53.7458 4.84851 53.4898 4.75251C53.2418 4.65651 53.0378 4.51651 52.8778 4.33251C52.7258 4.14851 52.6498 3.89651 52.6498 3.57651C52.6578 3.19251 52.8378 2.88451 53.1898 2.65251C53.5418 2.41251 53.9938 2.29251 54.5458 2.29251C54.7538 2.29251 54.9738 2.31651 55.2058 2.36451C55.4378 2.41251 55.6498 2.49651 55.8418 2.61651C56.0418 2.73651 56.2018 2.90051 56.3218 3.10851C56.4498 3.31651 56.5018 3.58851 56.4778 3.92451H55.9498C55.9578 3.67651 55.9138 3.47651 55.8178 3.32451C55.7298 3.17251 55.6058 3.05651 55.4458 2.97651C55.2938 2.88851 55.1338 2.83251 54.9658 2.80851C54.7978 2.78451 54.6458 2.77251 54.5098 2.77251C54.1338 2.77251 53.8138 2.84051 53.5498 2.97651C53.2938 3.11251 53.1658 3.32051 53.1658 3.60051C53.1658 3.83251 53.2458 4.01251 53.4058 4.14051C53.5658 4.26851 53.7738 4.36851 54.0298 4.44051C54.2858 4.50451 54.5538 4.56451 54.8338 4.62051C55.1138 4.67651 55.3818 4.75651 55.6378 4.86051C55.8938 4.96451 56.1018 5.11251 56.2618 5.30451C56.4218 5.49651 56.5018 5.76451 56.5018 6.10851C56.5018 6.42051 56.4138 6.67251 56.2378 6.86451C56.0698 7.05651 55.8378 7.19651 55.5418 7.28451C55.2458 7.37251 54.9138 7.41651 54.5458 7.41651ZM58.2836 7.29651C58.0356 7.29651 57.8716 7.22451 57.7916 7.08051C57.7196 6.93651 57.6836 6.76451 57.6836 6.56451V2.77251H58.2116V6.82851H59.3516V7.29651H58.2836ZM56.8796 2.86851V2.42451C57.0956 2.42451 57.2596 2.41651 57.3716 2.40051C57.4836 2.38451 57.5636 2.34051 57.6116 2.26851C57.6596 2.18851 57.6876 2.06451 57.6956 1.89651C57.7116 1.72051 57.7196 1.47651 57.7196 1.16451H58.2116V2.42451H59.3516V2.86851H56.8796ZM64.0533 7.29651L62.6613 2.58051V2.42451H63.1773L64.4253 6.82851H64.4493L65.8053 2.42451H66.3093L67.6893 6.82851H67.7133L68.9373 2.42451H69.4533V2.58051L68.0853 7.29651H67.2933L66.0693 3.38451H66.0453L64.8333 7.29651H64.0533ZM72.1652 7.41651C71.6452 7.41651 71.2132 7.29251 70.8692 7.04451C70.5332 6.79651 70.2812 6.48051 70.1132 6.09651C69.9452 5.70451 69.8652 5.30051 69.8732 4.88451C69.8732 4.45251 69.9612 4.04851 70.1372 3.67251C70.3132 3.29651 70.5692 2.99651 70.9052 2.77251C71.2492 2.54051 71.6652 2.42451 72.1532 2.42451C72.5612 2.42451 72.9212 2.51651 73.2332 2.70051C73.5532 2.87651 73.8092 3.12851 74.0012 3.45651C74.1932 3.77651 74.3012 4.16051 74.3252 4.60851C74.3332 4.64851 74.3372 4.69651 74.3372 4.75251C74.3372 4.80851 74.3372 4.86051 74.3372 4.90851H70.4012C70.4012 5.52451 70.5532 6.01651 70.8572 6.38451C71.1692 6.75251 71.6052 6.93651 72.1652 6.93651C72.5732 6.93651 72.9252 6.82851 73.2212 6.61251C73.5252 6.39651 73.7132 6.10451 73.7852 5.73651H74.3252C74.2692 6.06451 74.1412 6.35651 73.9412 6.61251C73.7412 6.86051 73.4892 7.05651 73.1852 7.20051C72.8812 7.34451 72.5412 7.41651 72.1652 7.41651ZM70.4372 4.54851H73.7732C73.7652 4.39651 73.7292 4.22851 73.6652 4.04451C73.6092 3.85251 73.5172 3.66851 73.3892 3.49251C73.2612 3.31651 73.0932 3.17251 72.8852 3.06051C72.6852 2.94851 72.4412 2.89251 72.1532 2.89251C71.8892 2.89251 71.6572 2.94051 71.4572 3.03651C71.2572 3.12451 71.0852 3.24451 70.9412 3.39651C70.8052 3.54851 70.6932 3.72451 70.6052 3.92451C70.5252 4.11651 70.4692 4.32451 70.4372 4.54851ZM77.3889 7.41651C76.8689 7.41651 76.4369 7.29251 76.0929 7.04451C75.7569 6.79651 75.5049 6.48051 75.3369 6.09651C75.1689 5.70451 75.0889 5.30051 75.0969 4.88451C75.0969 4.45251 75.1849 4.04851 75.3609 3.67251C75.5369 3.29651 75.7929 2.99651 76.1289 2.77251C76.4729 2.54051 76.8889 2.42451 77.3769 2.42451C77.7849 2.42451 78.1449 2.51651 78.4569 2.70051C78.7769 2.87651 79.0329 3.12851 79.2249 3.45651C79.4169 3.77651 79.5249 4.16051 79.5489 4.60851C79.5569 4.64851 79.5609 4.69651 79.5609 4.75251C79.5609 4.80851 79.5609 4.86051 79.5609 4.90851H75.6249C75.6249 5.52451 75.7769 6.01651 76.0809 6.38451C76.3929 6.75251 76.8289 6.93651 77.3889 6.93651C77.7969 6.93651 78.1489 6.82851 78.4449 6.61251C78.7489 6.39651 78.9369 6.10451 79.0089 5.73651H79.5489C79.4929 6.06451 79.3649 6.35651 79.1649 6.61251C78.9649 6.86051 78.7129 7.05651 78.4089 7.20051C78.1049 7.34451 77.7649 7.41651 77.3889 7.41651ZM75.6609 4.54851H78.9969C78.9889 4.39651 78.9529 4.22851 78.8889 4.04451C78.8329 3.85251 78.7409 3.66851 78.6129 3.49251C78.4849 3.31651 78.3169 3.17251 78.1089 3.06051C77.9089 2.94851 77.6649 2.89251 77.3769 2.89251C77.1129 2.89251 76.8809 2.94051 76.6809 3.03651C76.4809 3.12451 76.3089 3.24451 76.1649 3.39651C76.0289 3.54851 75.9169 3.72451 75.8289 3.92451C75.7489 4.11651 75.6929 4.32451 75.6609 4.54851ZM81.1487 7.30851H80.5967V0.540509H81.1487V7.30851ZM82.4807 4.38051L84.8567 7.30851H84.1727L82.0847 4.75251L82.4807 4.38051ZM81.0647 6.04851V5.36451L84.0887 2.42451H84.8207L81.0647 6.04851Z" fill="#7C70C3"/>
</svg>
