<svg viewBox="0 0 209 200" fill="none" xmlns="http://www.w3.org/2000/svg">
<path d="M94.9894 7.27053C97.9829 -1.94258 111.017 -1.9426 114.011 7.27051L131.778 61.9544C133.117 66.0747 136.957 68.8643 141.289 68.8643H198.787C208.474 68.8643 212.502 81.2604 204.665 86.9544L158.148 120.751C154.643 123.297 153.177 127.811 154.515 131.931L172.283 186.615C175.277 195.828 164.732 203.49 156.895 197.796L110.378 163.999C106.873 161.453 102.127 161.453 98.6221 163.999L52.1052 197.796C44.2681 203.49 33.7233 195.828 36.7168 186.615L54.4847 131.931C55.8234 127.811 54.3568 123.297 50.852 120.751L4.33506 86.9544C-3.50208 81.2604 0.525667 68.8643 10.2129 68.8643H67.711C72.0432 68.8643 75.8828 66.0747 77.2215 61.9544L94.9894 7.27053Z" fill="#ffffff"/>
</svg>
