<svg width="12" height="12" viewBox="0 0 11 11" fill="none" xmlns="http://www.w3.org/2000/svg">
<path fill-rule="evenodd" clip-rule="evenodd" d="M4.44089 0.273545C4.60921 0.170654 4.80267 0.116211 4.99994 0.116211C5.19722 0.116211 5.39066 0.170654 5.55898 0.273545C5.72731 0.376436 5.86396 0.523782 5.95391 0.699359L5.95551 0.702476L9.88519 8.56198C9.96722 8.72498 10.0066 8.90684 9.99895 9.0892C9.9913 9.27178 9.93714 9.44936 9.84153 9.60507C9.74592 9.76077 9.61214 9.88947 9.45279 9.97894C9.29351 10.0684 9.11394 10.1156 8.93122 10.1162H8.93014H1.06972H1.06863C0.885921 10.1156 0.706376 10.0684 0.547059 9.97894C0.387742 9.88947 0.253938 9.76077 0.158356 9.60507C0.0627741 9.44936 0.0085865 9.27178 0.00093932 9.0892C-0.00669892 8.90684 0.0323479 8.72555 0.114375 8.56255L4.04438 0.702484L4.04595 0.699351C4.13589 0.523774 4.27258 0.376436 4.44089 0.273545ZM4.99992 3.05971C5.29591 3.05971 5.53586 3.29966 5.53586 3.59565V5.91807C5.53586 6.21406 5.29591 6.45401 4.99992 6.45401C4.70393 6.45401 4.46398 6.21406 4.46398 5.91807V3.59565C4.46398 3.29966 4.70393 3.05971 4.99992 3.05971ZM5.71451 7.88319C5.71451 8.27786 5.39457 8.59778 4.99992 8.59778C4.60527 8.59778 4.28534 8.27786 4.28534 7.88319C4.28534 7.48852 4.60527 7.1686 4.99992 7.1686C5.39457 7.1686 5.71451 7.48852 5.71451 7.88319Z" fill="#2C2749"/>
</svg>
